<svg data-v-423bf9ae="" xmlns="http://www.w3.org/2000/svg" viewBox="0 0 311.9832222589174 163" class="iconAbove"><!----><!----><!----><g data-v-423bf9ae="" id="22d1794d-6824-4054-8c13-cd68d34a4d48" fill="#2F221A" transform="matrix(4.189943790435791,0,0,4.189943790435791,-1.592180848121643,102.1620101928711)"><path d="M8.94 1.38L10.38 1.38L12.78 1.35L12.78 1.95L11.96 2.11L11.88 3.00L11.88 3.00Q11.88 3.24 11.86 3.69L11.86 3.69L11.86 3.69Q11.83 4.15 11.83 4.35L11.83 4.35L11.83 7.67L11.83 7.67Q11.83 7.97 11.84 8.31L11.84 8.31L11.84 8.31Q11.86 8.65 11.89 9.03L11.89 9.03L11.89 9.03Q11.89 9.44 11.91 9.62L11.91 9.62L11.91 9.62Q11.94 9.81 12.00 9.91L12.00 9.91L12.98 10.08L12.98 10.68L10.72 10.64L8.64 10.68L8.64 10.08L9.48 9.91L9.48 9.91Q9.50 9.88 9.53 9.64L9.53 9.64L9.53 9.64Q9.57 9.40 9.57 9.03L9.57 9.03L9.62 7.67L9.57 2.99L6.85 10.68L5.40 10.68L2.73 3.00L2.69 5.85L2.69 5.85Q2.69 6.59 2.71 7.36L2.71 7.36L2.71 7.36Q2.73 8.13 2.74 8.59L2.74 8.59L2.74 8.59Q2.74 9.14 2.78 9.48L2.78 9.48L2.78 9.48Q2.81 9.82 2.86 9.91L2.86 9.91L3.66 10.08L3.66 10.68L2.01 10.64L0.38 10.68L0.38 10.08L1.18 9.91L1.18 9.91Q1.22 9.82 1.26 9.47L1.26 9.47L1.26 9.47Q1.30 9.11 1.30 8.59L1.30 8.59L1.35 5.85L1.38 4.00L1.33 2.86L1.33 2.86Q1.33 2.14 1.27 2.11L1.27 2.11L0.62 1.95L0.62 1.35L2.90 1.38L4.41 1.38L6.66 7.98L8.94 1.38ZM18.25 7.05L18.25 7.05L18.04 7.05L18.04 7.05Q16.98 7.05 16.36 7.48L16.36 7.48L16.36 7.48Q15.74 7.90 15.74 8.50L15.74 8.50L15.74 8.50Q15.74 8.85 15.98 9.10L15.98 9.10L15.98 9.10Q16.24 9.34 16.70 9.34L16.70 9.34L16.70 9.34Q17.40 9.34 17.80 8.78L17.80 8.78L17.80 8.78Q18.03 8.47 18.14 8.05L18.14 8.05L18.14 8.05Q18.25 7.64 18.25 7.05ZM18.60 10.26L18.56 9.21L18.56 9.21Q18.17 10.16 17.36 10.52L17.36 10.52L17.36 10.52Q16.94 10.69 16.57 10.77L16.57 10.77L16.57 10.77Q16.20 10.85 15.82 10.85L15.82 10.85L15.82 10.85Q14.69 10.85 14.01 10.28L14.01 10.28L14.01 10.28Q13.33 9.70 13.33 8.82L13.33 8.82L13.33 8.82Q13.33 7.58 14.64 6.82L14.64 6.82L14.64 6.82Q15.95 6.05 18.25 6.05L18.25 6.05L18.25 6.05Q18.25 5.04 18.02 4.71L18.02 4.71L18.02 4.71Q17.78 4.37 16.99 4.37L16.99 4.37L16.99 4.37Q16.35 4.37 15.94 4.49L15.94 4.49L15.94 4.49Q15.53 4.60 15.46 4.62L15.46 4.62L15.46 4.62Q15.39 4.65 15.14 4.77L15.14 4.77L15.10 5.48L14.50 5.64L13.73 3.85L13.73 3.85Q13.87 3.80 14.32 3.68L14.32 3.68L14.32 3.68Q14.77 3.55 15.18 3.43L15.18 3.43L15.18 3.43Q15.64 3.34 16.18 3.28L16.18 3.28L16.18 3.28Q16.72 3.22 17.31 3.22L17.31 3.22L17.31 3.22Q18.79 3.22 19.61 3.79L19.61 3.79L19.61 3.79Q20.42 4.36 20.42 5.50L20.42 5.50L20.42 7.89L20.42 7.89Q20.42 8.27 20.45 8.60L20.45 8.60L20.45 8.60Q20.47 8.94 20.51 9.16L20.51 9.16L20.51 9.16Q20.54 9.38 20.58 9.52L20.58 9.52L20.58 9.52Q20.61 9.66 20.70 9.91L20.70 9.91L21.33 10.08L21.33 10.68L20.34 10.65L19.72 10.64L19.72 10.64Q19.09 10.64 18.67 10.69L18.67 10.69L18.60 10.26ZM25.14 4.30L25.14 4.30L25.14 4.30Q24.54 4.30 24.15 4.78L24.15 4.78L24.15 4.78Q23.79 5.29 23.79 6.03L23.79 6.03L23.79 6.03Q23.79 6.78 24.17 7.24L24.17 7.24L24.17 7.24Q24.54 7.71 25.15 7.71L25.15 7.71L25.15 7.71Q25.78 7.71 26.14 7.26L26.14 7.26L26.14 7.26Q26.49 6.80 26.49 6.03L26.49 6.03L26.49 6.03Q26.49 5.25 26.14 4.77L26.14 4.77L26.14 4.77Q25.78 4.30 25.14 4.30ZM21.57 6.01L21.57 6.01L21.57 6.01Q21.57 4.75 22.60 3.99L22.60 3.99L22.60 3.99Q23.63 3.22 25.14 3.22L25.14 3.22L25.14 3.22Q25.52 3.22 25.80 3.26L25.80 3.26L27.23 3.48L27.23 3.48Q27.88 3.56 29.36 3.56L29.36 3.56L29.38 4.22L28.86 4.31L28.06 4.40L28.06 4.40Q28.71 5.06 28.71 6.06L28.71 6.06L28.71 6.06Q28.71 7.29 27.69 8.04L27.69 8.04L27.69 8.04Q26.67 8.78 25.05 8.78L25.05 8.78L25.05 8.78Q24.44 8.78 24.09 8.70L24.09 8.70L24.01 8.96L24.01 8.96Q23.78 9.53 23.78 9.77L23.78 9.77L24.10 9.69L24.10 9.69Q24.27 9.63 24.63 9.59L24.63 9.59L24.63 9.59Q24.99 9.54 25.45 9.54L25.45 9.54L25.45 9.54Q27.13 9.54 28.16 10.06L28.16 10.06L28.16 10.06Q29.19 10.57 29.19 11.83L29.19 11.83L29.19 11.83Q29.19 13.00 27.90 13.76L27.90 13.76L27.90 13.76Q26.62 14.52 24.93 14.52L24.93 14.52L24.93 14.52Q23.41 14.52 22.40 13.93L22.40 13.93L22.40 13.93Q21.39 13.33 21.39 12.52L21.39 12.52L21.39 12.52Q21.39 12.15 21.57 11.90L21.57 11.90L21.57 11.90Q21.74 11.65 21.97 11.45L21.97 11.45L23.10 12.13L23.10 12.13Q23.10 12.49 23.75 12.88L23.75 12.88L23.75 12.88Q24.39 13.27 25.50 13.27L25.50 13.27L25.50 13.27Q26.03 13.27 26.49 13.02L26.49 13.02L26.49 13.02Q26.96 12.80 26.96 12.37L26.96 12.37L26.96 12.37Q26.96 11.86 26.06 11.57L26.06 11.57L26.06 11.57Q25.62 11.45 25.09 11.45L25.09 11.45L25.09 11.45Q24.38 11.45 23.27 11.65L23.27 11.65L23.27 11.65Q23.16 11.40 22.69 10.91L22.69 10.91L22.69 10.91Q22.22 10.43 22.16 10.43L22.16 10.43L22.57 9.56L22.57 9.56Q22.73 9.15 22.79 8.98L22.79 8.98L22.79 8.98Q22.92 8.64 23.00 8.36L23.00 8.36L23.00 8.36Q22.69 8.21 22.50 8.05L22.50 8.05L22.50 8.05Q21.57 7.35 21.57 6.01ZM33.16 7.42L33.16 7.94L33.16 7.94Q33.16 8.30 33.16 8.57L33.16 8.57L33.16 8.57Q33.16 8.83 33.21 9.31L33.21 9.31L33.25 9.91L34.30 10.08L34.30 10.68L32.07 10.64L30.14 10.68L30.14 10.08L30.97 9.91L30.99 9.31L31.01 7.94L31.01 6.43L30.95 4.37L30.00 4.21L30.00 3.60L30.00 3.60Q30.26 3.57 30.47 3.55L30.47 3.55L30.47 3.55Q30.68 3.53 31.11 3.46L31.11 3.46L31.11 3.46Q31.54 3.38 32.13 3.22L32.13 3.22L32.98 3.22L32.92 5.06L32.92 5.06Q33.34 4.12 34.05 3.67L34.05 3.67L34.05 3.67Q34.77 3.22 35.47 3.22L35.47 3.22L35.47 3.22Q35.64 3.22 35.80 3.24L35.80 3.24L35.80 3.24Q35.96 3.26 36.12 3.31L36.12 3.31L36.12 3.31Q36.28 3.35 36.39 3.43L36.39 3.43L35.97 4.56L35.97 4.56Q35.91 4.74 35.82 5.10L35.82 5.10L35.82 5.10Q35.77 5.25 35.73 5.41L35.73 5.41L35.18 5.33L35.18 5.33Q35.18 4.81 35.07 4.77L35.07 4.77L34.79 4.72L34.79 4.72Q34.05 4.72 33.61 5.50L33.61 5.50L33.61 5.50Q33.16 6.28 33.16 7.42L33.16 7.42ZM41.54 7.05L41.54 7.05L41.32 7.05L41.32 7.05Q40.26 7.05 39.64 7.48L39.64 7.48L39.64 7.48Q39.02 7.90 39.02 8.50L39.02 8.50L39.02 8.50Q39.02 8.85 39.26 9.10L39.26 9.10L39.26 9.10Q39.52 9.34 39.99 9.34L39.99 9.34L39.99 9.34Q40.68 9.34 41.08 8.78L41.08 8.78L41.08 8.78Q41.31 8.47 41.42 8.05L41.42 8.05L41.42 8.05Q41.54 7.64 41.54 7.05ZM41.88 10.26L41.85 9.21L41.85 9.21Q41.45 10.16 40.64 10.52L40.64 10.52L40.64 10.52Q40.22 10.69 39.86 10.77L39.86 10.77L39.86 10.77Q39.49 10.85 39.10 10.85L39.10 10.85L39.10 10.85Q37.97 10.85 37.29 10.28L37.29 10.28L37.29 10.28Q36.61 9.70 36.61 8.82L36.61 8.82L36.61 8.82Q36.61 7.58 37.93 6.82L37.93 6.82L37.93 6.82Q39.24 6.05 41.54 6.05L41.54 6.05L41.54 6.05Q41.54 5.04 41.30 4.71L41.30 4.71L41.30 4.71Q41.06 4.37 40.27 4.37L40.27 4.37L40.27 4.37Q39.63 4.37 39.22 4.49L39.22 4.49L39.22 4.49Q38.81 4.60 38.74 4.62L38.74 4.62L38.74 4.62Q38.68 4.65 38.43 4.77L38.43 4.77L38.38 5.48L37.78 5.64L37.01 3.85L37.01 3.85Q37.15 3.80 37.60 3.68L37.60 3.68L37.60 3.68Q38.06 3.55 38.46 3.43L38.46 3.43L38.46 3.43Q38.93 3.34 39.46 3.28L39.46 3.28L39.46 3.28Q40.00 3.22 40.59 3.22L40.59 3.22L40.59 3.22Q42.07 3.22 42.89 3.79L42.89 3.79L42.89 3.79Q43.70 4.36 43.70 5.50L43.70 5.50L43.70 7.89L43.70 7.89Q43.70 8.27 43.73 8.60L43.73 8.60L43.73 8.60Q43.75 8.94 43.79 9.16L43.79 9.16L43.79 9.16Q43.82 9.38 43.86 9.52L43.86 9.52L43.86 9.52Q43.89 9.66 43.98 9.91L43.98 9.91L44.61 10.08L44.61 10.68L43.62 10.65L43.00 10.64L43.00 10.64Q42.37 10.64 41.95 10.69L41.95 10.69L41.88 10.26ZM47.35 4.43L47.35 8.03L47.35 8.03Q47.35 8.71 47.54 9.04L47.54 9.04L47.54 9.04Q47.73 9.34 48.16 9.34L48.16 9.34L48.16 9.34Q48.30 9.34 48.37 9.32L48.37 9.32L48.37 9.32Q48.43 9.31 48.55 9.23L48.55 9.23L48.95 8.98L49.52 9.69L48.76 10.33L48.76 10.33Q48.14 10.84 47.16 10.84L47.16 10.84L47.16 10.84Q46.27 10.84 45.74 10.34L45.74 10.34L45.74 10.34Q45.22 9.84 45.22 8.96L45.22 8.96L45.22 4.43L44.31 4.43L44.31 3.79L45.22 3.41L45.22 2.01L47.35 1.55L47.35 3.42L49.17 3.40L48.79 4.44L47.35 4.43ZM57.76 5.62L57.76 7.94L57.85 9.91L58.65 10.08L58.65 10.68L56.69 10.64L55.59 10.68L55.59 10.08L55.62 9.91L55.62 6.61L55.62 6.61Q55.62 5.67 55.39 5.19L55.39 5.19L55.39 5.19Q55.17 4.72 54.51 4.72L54.51 4.72L54.51 4.72Q53.83 4.72 53.49 5.31L53.49 5.31L53.49 5.31Q53.15 5.90 53.15 6.76L53.15 6.76L53.15 7.94L53.24 9.91L54.02 10.08L54.02 10.68L52.07 10.64L50.09 10.68L50.09 10.08L50.91 9.91L50.97 7.94L50.97 3.42L50.91 1.36L49.92 1.19L49.92 0.58L49.92 0.58Q50.26 0.56 50.53 0.53L50.53 0.53L50.53 0.53Q50.81 0.50 51.16 0.45L51.16 0.45L51.16 0.45Q51.51 0.39 52.27 0.20L52.27 0.20L53.25 0.20L53.15 2.12L53.15 4.35L53.15 4.35Q53.41 4.07 53.69 3.87L53.69 3.87L53.69 3.87Q53.96 3.66 54.28 3.51L54.28 3.51L54.28 3.51Q54.90 3.22 55.59 3.22L55.59 3.22L55.59 3.22Q56.63 3.22 57.20 3.85L57.20 3.85L57.20 3.85Q57.76 4.48 57.76 5.62L57.76 5.62ZM65.45 8.30L66.21 9.02L66.21 9.02Q65.70 9.76 64.66 10.30L64.66 10.30L64.66 10.30Q63.61 10.84 62.40 10.84L62.40 10.84L62.40 10.84Q60.60 10.84 59.49 9.88L59.49 9.88L59.49 9.88Q58.38 8.91 58.38 7.27L58.38 7.27L58.38 7.27Q58.38 5.58 59.56 4.40L59.56 4.40L59.56 4.40Q60.74 3.22 62.61 3.22L62.61 3.22L62.61 3.22Q64.11 3.22 65.06 3.92L65.06 3.92L65.06 3.92Q66.01 4.62 66.01 6.08L66.01 6.08L65.97 6.74L60.89 6.72L60.89 6.72Q60.89 7.36 61.02 7.84L61.02 7.84L61.02 7.84Q61.15 8.32 61.40 8.65L61.40 8.65L61.40 8.65Q61.92 9.34 63.20 9.34L63.20 9.34L63.20 9.34Q63.96 9.34 64.54 9.00L64.54 9.00L64.54 9.00Q65.13 8.66 65.45 8.30L65.45 8.30ZM60.93 5.77L60.93 5.77L60.93 5.77Q61.11 5.77 61.27 5.77L61.27 5.77L61.27 5.77Q61.43 5.77 61.67 5.79L61.67 5.79L62.14 5.78L62.14 5.78Q62.59 5.78 62.93 5.75L62.93 5.75L62.93 5.75Q63.28 5.72 63.79 5.64L63.79 5.64L63.79 5.33L63.79 5.33Q63.79 4.83 63.46 4.52L63.46 4.52L63.46 4.52Q63.13 4.22 62.60 4.22L62.60 4.22L62.60 4.22Q61.80 4.22 61.33 4.84L61.33 4.84L61.33 4.84Q61.08 5.17 60.93 5.77ZM71.76 7.05L71.76 7.05L71.55 7.05L71.55 7.05Q70.49 7.05 69.87 7.48L69.87 7.48L69.87 7.48Q69.25 7.90 69.25 8.50L69.25 8.50L69.25 8.50Q69.25 8.85 69.49 9.10L69.49 9.10L69.49 9.10Q69.75 9.34 70.21 9.34L70.21 9.34L70.21 9.34Q70.91 9.34 71.31 8.78L71.31 8.78L71.31 8.78Q71.54 8.47 71.65 8.05L71.65 8.05L71.65 8.05Q71.76 7.64 71.76 7.05ZM72.11 10.26L72.07 9.21L72.07 9.21Q71.68 10.16 70.87 10.52L70.87 10.52L70.87 10.52Q70.45 10.69 70.08 10.77L70.08 10.77L70.08 10.77Q69.71 10.85 69.33 10.85L69.33 10.85L69.33 10.85Q68.20 10.85 67.52 10.28L67.52 10.28L67.52 10.28Q66.84 9.70 66.84 8.82L66.84 8.82L66.84 8.82Q66.84 7.58 68.15 6.82L68.15 6.82L68.15 6.82Q69.46 6.05 71.76 6.05L71.76 6.05L71.76 6.05Q71.76 5.04 71.53 4.71L71.53 4.71L71.53 4.71Q71.29 4.37 70.50 4.37L70.50 4.37L70.50 4.37Q69.86 4.37 69.45 4.49L69.45 4.49L69.45 4.49Q69.03 4.60 68.97 4.62L68.97 4.62L68.97 4.62Q68.90 4.65 68.65 4.77L68.65 4.77L68.61 5.48L68.01 5.64L67.24 3.85L67.24 3.85Q67.38 3.80 67.83 3.68L67.83 3.68L67.83 3.68Q68.28 3.55 68.69 3.43L68.69 3.43L68.69 3.43Q69.15 3.34 69.69 3.28L69.69 3.28L69.69 3.28Q70.23 3.22 70.82 3.22L70.82 3.22L70.82 3.22Q72.30 3.22 73.12 3.79L73.12 3.79L73.12 3.79Q73.93 4.36 73.93 5.50L73.93 5.50L73.93 7.89L73.93 7.89Q73.93 8.27 73.96 8.60L73.96 8.60L73.96 8.60Q73.98 8.94 74.02 9.16L74.02 9.16L74.02 9.16Q74.05 9.38 74.09 9.52L74.09 9.52L74.09 9.52Q74.12 9.66 74.21 9.91L74.21 9.91L74.84 10.08L74.84 10.68L73.85 10.65L73.23 10.64L73.23 10.64Q72.60 10.64 72.18 10.69L72.18 10.69L72.11 10.26Z"></path></g><defs data-v-423bf9ae=""><linearGradient data-v-423bf9ae="" gradientTransform="rotate(25)" id="38eeae52-233d-428d-9ea4-49280e27be46" x1="0%" y1="0%" x2="100%" y2="0%"><stop data-v-423bf9ae="" offset="0%" style="stop-color: rgb(95, 37, 23); stop-opacity: 1;"></stop><stop data-v-423bf9ae="" offset="100%" style="stop-color: rgb(202, 176, 141); stop-opacity: 1;"></stop></linearGradient></defs><g data-v-423bf9ae="" id="fd03e6e0-833a-443c-932d-eee9ecfa1268" transform="matrix(1.489593505859375,0,0,1.489593505859375,-14.182414054870605,-122.53388977050781)" stroke="none" fill="url(#38eeae52-233d-428d-9ea4-49280e27be46)"><path d="M136.867 104.083l.021-.002-.211-.594a30.069 30.069 0 0 0-28.642-20.696c-1.009 0-2.032.051-3.042.152-16.573 1.657-28.708 16.49-27.051 33.063.135 1.349.361 2.667.662 3.954l-.017.002.09.325a30.078 30.078 0 0 0 29.287 22.923c1.009 0 2.032-.051 3.042-.152 16.573-1.658 28.708-16.49 27.051-33.064a30.49 30.49 0 0 0-1.19-5.911zm-2.747-1.736l-21.702 2.171-.16.029a4.009 4.009 0 0 1-.65.135 4.068 4.068 0 0 1-4.47-3.656 4.088 4.088 0 0 1 3.656-4.469c.088-.009.176-.012.263-.012.135 0 .27.007.403.016l.081.005 17.976-1.798a27.937 27.937 0 0 1 4.603 7.579zm-52.945 19.366l19.556-1.956.16-.029c.211-.057.436-.114.65-.135a4.072 4.072 0 0 1 4.469 3.656c.108 1.085-.212 2.147-.902 2.992s-1.669 1.369-2.755 1.477a3.976 3.976 0 0 1-.664-.003l-.081-.005-16.582 1.658a27.905 27.905 0 0 1-3.851-7.655zm29.633 19.354c-.943.094-1.9.143-2.843.143-8.61 0-16.35-3.835-21.529-9.973l15.21-1.521c.299.017.601.024.907-.007a6.043 6.043 0 0 0 4.103-2.201 6.044 6.044 0 0 0 1.345-4.457 6.064 6.064 0 0 0-6.657-5.447 5.649 5.649 0 0 0-.892.173l-19.843 1.984a28.867 28.867 0 0 1-.676-3.953c-1.548-15.476 9.783-29.327 25.26-30.875.943-.094 1.9-.143 2.843-.143 7.715 0 14.729 3.078 19.831 8.133l-16.363 1.637a5.611 5.611 0 0 0-.907.007 6.09 6.09 0 0 0-5.448 6.659 6.061 6.061 0 0 0 6.66 5.448 5.8 5.8 0 0 0 .89-.173l22.135-2.214a28.568 28.568 0 0 1 1.235 5.907c1.546 15.475-9.785 29.326-25.261 30.873zM146.5 87.234c-2.903 0-5.266 2.362-5.266 5.266s2.362 5.266 5.266 5.266 5.266-2.362 5.266-5.266-2.363-5.266-5.266-5.266zm0 8.532c-1.801 0-3.266-1.465-3.266-3.266s1.465-3.266 3.266-3.266 3.266 1.465 3.266 3.266-1.465 3.266-3.266 3.266z"></path></g><!----></svg>