<svg viewBox="0 0 138 134" version="1.1" xmlns="http://www.w3.org/2000/svg">
    <style>
        #github-small {
            --color-fallback: #181717;
        }

        @media (prefers-color-scheme: dark) {
            #github-small {
                --color-fallback: #fff;
            }
        }
    </style>

    <symbol id="github-small" viewBox="0 0 138 134">
        <path
            d="M68.744,0.469C31.269,0.469 0.877,30.856 0.877,68.348C0.877,98.331 20.323,123.773 47.294,132.748C50.69,133.369 51.927,131.273 51.927,129.477C51.927,127.865 51.869,123.598 51.835,117.932C32.956,122.036 28.973,108.836 28.973,108.836C25.885,100.994 21.435,98.906 21.435,98.906C15.273,94.694 21.902,94.782 21.902,94.782C28.715,95.261 32.298,101.773 32.298,101.773C38.352,112.148 48.185,109.152 52.052,107.415C52.669,103.027 54.423,100.036 56.36,98.34C41.29,96.627 25.444,90.802 25.444,64.794C25.444,57.386 28.09,51.327 32.431,46.582C31.731,44.865 29.402,37.965 33.098,28.619C33.098,28.619 38.794,26.794 51.76,35.577C57.173,34.073 62.981,33.319 68.752,33.294C74.519,33.319 80.323,34.073 85.744,35.577C98.702,26.794 104.39,28.619 104.39,28.619C108.094,37.965 105.765,44.865 105.069,46.582C109.419,51.327 112.044,57.386 112.044,64.794C112.044,90.869 96.173,96.607 81.056,98.286C83.49,100.381 85.66,104.523 85.66,110.857C85.66,119.932 85.577,127.252 85.577,129.477C85.577,131.29 86.802,133.402 90.244,132.74C117.194,123.748 136.623,98.323 136.623,68.348C136.623,30.856 106.231,0.469 68.744,0.469Z"
            style="fill: var(--color-local, var(--color-fallback))" />
    </symbol>

    <use href="#github-small" />
</svg>
