<svg viewBox="0 0 1024 1024" xmlns="http://www.w3.org/2000/svg">
    <style>
        #ko-fi {
            --color-fallback: #fff;
            --color-fallback-inverse: #030404;
        }

        @media (prefers-color-scheme: dark) {
            #ko-fi {
                --color-fallback: #030404;
                --color-fallback-inverse: #fff;
            }
        }
    </style>

    <symbol id="ko-fi" viewBox="0 0 1024 1024">
        <path
            d="M1018.9,381.85C1004.7,306.847 964.328,260.124 922.949,231.232C880.157,201.355 828.899,186.004 776.711,186.004L36.01,186.004C10.242,186.004 0.371,211.161 0.275,223.762C0.261,225.404 0.32,231.98 0.32,231.98C0.32,231.98 -0.894,559.676 1.407,734.701C8.397,838.03 111.926,837.996 111.926,837.996C111.926,837.996 449.939,837.005 612.042,835.998C619.647,835.949 627.241,835.131 634.617,833.286C726.912,810.194 736.458,724.45 735.474,676.653C920.992,686.96 1051.88,556.051 1018.9,381.85ZM810.505,551.92C770.94,556.864 738.796,553.151 738.796,553.151L738.796,310.897L787.478,310.897C819.651,310.897 850.692,324.293 871.682,348.675C886.463,365.84 898.285,389.999 898.285,423.371C898.285,504.948 856.252,537.087 810.505,551.92Z"
            style="fill: var(--color-local, var(--color-fallback))" />
        <path
            d="M363.094,702.1C371.151,706.157 376.3,701.116 376.3,701.116C376.3,701.116 494.19,593.516 547.297,531.55C594.535,476.114 597.614,382.698 516.491,347.792C435.372,312.886 368.625,388.856 368.625,388.856C310.746,325.197 223.144,328.419 182.628,371.501C142.115,414.583 156.26,488.529 186.487,529.68C214.862,568.312 339.576,679.467 358.476,698.266C358.476,698.266 359.854,699.705 363.094,702.1Z"
            style="fill: var(--color-local-inverse, var(--color-fallback-inverse))" />
    </symbol>

    <use href="#ko-fi" />
</svg>
