<svg viewBox="0 0 2500 2500" version="1.1" xmlns="http://www.w3.org/2000/svg">
    <g>
        <path
            d="M2285.11,1058.89C2258.78,919.829 2183.93,833.204 2107.21,779.642C2027.87,724.246 1932.84,695.783 1836.08,695.783L462.8,695.783C415.029,695.783 396.729,742.425 396.546,765.788C396.529,768.833 396.638,781.025 396.638,781.025C396.638,781.025 394.383,1388.58 398.646,1713.08C411.608,1904.65 603.558,1904.59 603.558,1904.59C603.558,1904.59 1230.24,1902.75 1530.78,1900.89C1544.88,1900.8 1558.95,1899.28 1572.63,1895.86C1743.75,1853.05 1761.45,1694.08 1759.62,1605.46C2103.57,1624.57 2346.26,1381.86 2285.11,1058.89ZM1898.73,1374.2C1825.38,1383.37 1765.78,1376.48 1765.78,1376.48L1765.78,927.338L1856.04,927.338C1915.7,927.338 1973.24,952.175 2012.16,997.379C2039.56,1029.2 2061.48,1074 2061.48,1135.87C2061.48,1287.11 1983.55,1346.7 1898.73,1374.2Z"
            fill="#fff" />
        <path
            d="M2285.11,1058.89C2258.78,919.829 2183.93,833.204 2107.21,779.642C2027.87,724.246 1932.84,695.783 1836.08,695.783L462.8,695.783C415.029,695.783 396.729,742.425 396.546,765.788C396.529,768.833 396.638,781.025 396.638,781.025C396.638,781.025 394.383,1388.58 398.646,1713.08C411.608,1904.65 603.558,1904.59 603.558,1904.59C603.558,1904.59 1230.24,1902.75 1530.78,1900.89C1544.88,1900.8 1558.95,1899.28 1572.63,1895.86C1743.75,1853.05 1761.45,1694.08 1759.62,1605.46C2103.57,1624.57 2346.26,1381.86 2285.11,1058.89ZM1898.73,1374.2C1825.38,1383.37 1765.78,1376.48 1765.78,1376.48L1765.78,927.338L1856.04,927.338C1915.7,927.338 1973.24,952.175 2012.16,997.379C2039.56,1029.2 2061.48,1074 2061.48,1135.87C2061.48,1287.11 1983.55,1346.7 1898.73,1374.2Z"
            fill="none"
            stroke="#323b47"
            stroke-width="29.17px" />
        <path
            d="M1069.22,1652.64C1084.16,1660.16 1093.7,1650.81 1093.7,1650.81C1093.7,1650.81 1312.28,1451.32 1410.74,1336.43C1498.33,1233.66 1504.03,1060.46 1353.63,995.742C1203.23,931.029 1079.48,1071.88 1079.48,1071.88C972.167,953.85 809.758,959.825 734.638,1039.7C659.521,1119.58 685.75,1256.67 741.792,1332.97C794.396,1404.59 1025.62,1610.67 1060.67,1645.53C1060.67,1645.53 1063.22,1648.2 1069.22,1652.64Z"
            fill="#f15e5e" />
    </g>
</svg>
