<svg viewBox="0 0 183 300" version="1.1" xmlns="http://www.w3.org/2000/svg">
    <style>
        #dragon {
            fill: #2f2825;
        }

        @media (prefers-color-scheme: dark) {
            #dragon {
                fill: #e5e1d2;
            }
        }
    </style>

    <path id="dragon"
        d="M37.993,261.109C37.993,260.331 38.075,259.609 38.244,258.944C37.642,261.159 37.447,263.492 37.658,265.939C37.847,267.4 38.153,268.816 38.576,270.188C38.41,269.609 38.27,269.026 38.159,268.437C37.938,267.66 37.828,266.44 37.828,264.774C37.717,263.886 37.772,262.662 37.993,261.109ZM100.46,221.13L100.294,221.13L103.792,219.63C103.792,219.52 104.348,219.352 105.458,219.131L109.121,218.797C112.453,218.797 114.229,219.186 114.453,219.964C114.785,220.852 113.285,221.796 109.954,222.796L105.123,224.294L102.959,225.461L102.793,225.461C100.792,226.349 99.461,227.57 98.795,229.126C98.238,230.902 97.74,232.068 97.295,232.623C96.738,233.734 96.241,234.289 95.795,234.289C95.463,234.178 95.242,233.511 95.128,232.291C94.907,231.07 94.851,229.68 94.962,228.127C95.186,226.572 95.684,225.295 96.462,224.294C97.35,222.962 98.684,221.908 100.46,221.13ZM131.277,216.966C131.498,217.41 131.609,218.243 131.609,219.464C131.277,220.907 130.389,222.129 128.944,223.129C128.167,223.795 127.223,224.35 126.114,224.795L123.28,225.794C119.396,226.905 116.728,227.681 115.286,228.127C112.954,228.792 111.288,229.57 110.289,230.458C108.844,231.68 107.846,233.511 107.289,235.955L106.788,238.954L106.456,239.454L105.955,238.954C105.292,238.398 104.846,237.399 104.625,235.955C104.403,234.622 104.403,233.401 104.625,232.291L105.458,229.793C105.568,229.57 106.18,228.737 107.289,227.294C108.734,225.739 110.842,224.406 113.621,223.295C114.951,222.851 117.674,222.074 121.78,220.963L124.279,220.297C125.945,219.964 126.947,219.409 127.279,218.632C127.724,217.965 127.334,216.743 126.114,214.966C125.226,213.522 125.001,212.634 125.447,212.302C125.779,211.856 126.722,212.134 128.278,213.135C128.613,213.579 129.276,214.3 130.278,215.3L130.942,215.965L131.277,216.966ZM141.272,203.973C140.937,205.305 139.993,206.638 138.438,207.97C137.218,209.081 135.884,209.969 134.443,210.636L132.11,211.301C128.668,212.19 124.614,212.19 119.949,211.301C117.505,210.747 115.508,209.969 113.952,208.97C112.954,208.414 112.287,207.915 111.955,207.47L111.786,206.971L114.785,206.472L120.45,206.971C125.558,206.971 129.055,206.748 130.942,206.304C131.167,206.304 131.775,206.193 132.777,205.971C133.997,205.527 135.107,205.027 136.109,204.472C136.772,204.139 137.774,203.527 139.105,202.639C140.218,201.861 140.937,201.585 141.272,201.806C141.828,202.029 141.828,202.751 141.272,203.973ZM102.624,88.034C102.513,87.923 100.125,87.978 95.463,88.201C90.908,88.201 86.025,88.367 80.803,88.701C75.252,88.922 70.587,89.534 66.81,90.532L64.145,91.032L62.147,91.699C61.038,92.032 60.371,92.087 60.146,91.865C60.146,91.421 60.592,90.921 61.48,90.366L63.312,89.034L65.977,87.868C69.533,86.313 74.364,85.146 80.471,84.369C84.912,83.814 89.854,83.425 95.297,83.204C99.959,82.87 102.458,82.758 102.793,82.87C107.566,82.758 115.007,83.759 125.112,85.868C131.443,87.424 136.886,89.089 141.438,90.866C149.324,93.976 155.21,97.807 159.094,102.36C161.538,105.025 163.038,107.358 163.594,109.355L164.092,110.689C163.871,110.689 163.483,110.356 162.927,109.689C159.927,106.691 158.04,104.859 157.263,104.192C152.711,100.194 146.881,97.085 139.772,94.864C135.998,93.53 130.721,92.143 123.947,90.7C121.393,90.254 118.95,89.867 116.617,89.534C114.951,90.088 113.23,90.755 111.454,91.533C109.346,92.753 107.846,94.142 106.957,95.697C106.291,96.696 105.789,97.918 105.458,99.361C105.458,99.806 105.402,100.527 105.292,101.527C105.292,102.86 105.347,103.637 105.458,103.859L106.291,106.357L107.956,109.189C109.843,112.854 110.842,115.408 110.953,116.851C111.398,117.962 111.509,119.073 111.288,120.183C111.955,120.629 112.732,121.239 113.621,122.016L115.95,124.016L118.784,127.846C119.116,128.401 119.561,129.345 120.115,130.679C120.892,132.676 121.117,133.843 120.781,134.176C120.45,134.176 119.506,133.509 117.951,132.177L112.954,127.18C111.509,126.181 110.065,125.292 108.623,124.515C107.956,125.18 107.179,125.847 106.291,126.514L102.793,129.179L95.795,136.841L92.964,141.506L90.3,147.336C89.743,148.556 89.242,149.723 88.8,150.834C89.577,150.834 90.908,150.945 92.798,151.167C96.907,151.722 101.293,152.721 105.955,154.165C120.505,158.942 132.165,166.159 140.937,175.821C146.269,181.706 150.323,188.093 153.098,194.977C155.763,202.195 157.263,208.747 157.595,214.633C157.93,220.297 157.819,225.127 157.263,229.126L156.264,235.455C154.042,247.005 150.099,257.499 144.438,266.939C139.105,276.046 132.497,283.429 124.614,289.094C117.73,293.87 109.677,297.034 100.46,298.589C93.351,299.921 85.911,300.31 78.138,299.755C72.809,299.199 69.588,298.81 68.475,298.589C65.144,298.034 62.092,297.201 59.314,296.09C54.206,293.87 49.765,290.925 45.987,287.262C39.103,280.487 35.495,273.379 35.16,265.939C35.049,260.164 36.715,255.445 40.157,251.78C41.712,250.337 43.489,249.004 45.489,247.783C47.487,247.228 48.6,246.895 48.821,246.782C51.043,246.228 52.93,246.616 54.485,247.949L55.65,248.782L56.317,249.948C56.538,250.059 56.929,250.725 57.482,251.947C58.481,254.278 58.982,256.722 58.982,259.276C59.203,262.719 59.372,264.606 59.483,264.94C59.704,266.716 60.146,267.66 60.813,267.772C61.48,267.993 62.313,267.883 63.312,267.439L65.313,266.272C66.533,265.384 67.255,264.94 67.477,264.94C67.477,265.161 66.868,265.828 65.645,266.939L63.813,268.437C63.367,268.883 62.87,269.16 62.313,269.27L61.314,269.438L60.146,269.438L59.148,268.771L58.315,267.605C57.872,266.939 57.537,266.106 57.316,265.106C56.984,263.996 56.704,262.108 56.483,259.443C56.041,256.666 55.429,254.556 54.651,253.114L53.818,251.614C53.597,251.392 53.207,251.059 52.65,250.615C51.762,250.059 50.763,249.948 49.654,250.281C46.765,251.28 44.657,253.335 43.323,256.445C42.545,258.443 42.158,260.221 42.158,261.774C41.937,262.662 41.937,263.608 42.158,264.606L42.158,266.272L42.49,267.772C43.267,271.769 45.711,275.379 49.82,278.6C53.708,281.708 58.539,283.875 64.311,285.095C76.417,287.761 89.522,285.484 103.626,278.266C105.955,277.489 109.733,275.156 114.951,271.27C118.283,268.716 121.227,265.773 123.781,262.441C126.114,259.554 128.502,255.334 130.942,249.782C133.054,244.672 134.332,240.119 134.775,236.122C135.22,233.345 135.165,229.126 134.609,223.461C134.274,220.242 133.61,217.41 132.608,214.966C131.498,213.079 131.001,212.079 131.111,211.968C131.222,211.746 131.554,211.856 132.11,212.302C132.777,212.746 133.385,213.411 133.942,214.3C135.497,216.522 136.551,219.409 137.107,222.962C137.664,224.961 137.996,227.071 138.106,229.292C138.328,232.846 138.383,235.234 138.272,236.456C137.94,240.897 136.831,245.894 134.941,251.448C132.497,257.444 130.054,262.052 127.611,265.273C125.17,268.605 121.949,271.881 117.951,275.101C115.286,277.212 112.508,279.099 109.622,280.765C107.289,282.097 106.014,282.819 105.789,282.93C90.687,290.594 76.472,292.925 63.146,289.927C56.594,288.371 51.099,285.762 46.654,282.097C44.322,280.098 42.434,277.988 40.99,275.767C42.77,278.878 45.268,281.876 48.486,284.763C52.374,288.316 56.594,290.87 61.148,292.425C63.702,293.424 66.422,294.091 69.308,294.425C69.533,294.535 72.64,294.869 78.639,295.423C85.855,295.757 92.909,295.257 99.793,293.925C108.122,292.481 115.452,289.483 121.78,284.929C128.889,279.711 134.996,272.769 140.104,264.107C145.436,255.223 149.21,245.339 151.433,234.456L152.265,228.459C152.932,224.239 153.098,219.743 152.766,214.966C152.656,209.525 151.322,203.472 148.768,196.809C146.103,189.924 142.437,183.928 137.774,178.819C129.999,169.712 119.06,162.384 104.957,156.83C101.293,155.387 97.129,154 92.463,152.666C90.576,152.111 89.242,151.722 88.465,151.501C87.69,153.832 87.079,156.109 86.633,158.33C86.412,159.441 86.191,160.718 85.966,162.161C85.745,163.161 85.524,163.716 85.302,163.827C84.967,163.939 84.635,163.438 84.3,162.328C83.968,161.107 83.802,159.718 83.802,158.164C83.913,154.72 84.746,150.613 86.301,145.837C87.3,141.95 89.076,138.007 91.63,134.01C93.631,131.123 94.962,129.457 95.629,129.013L99.461,125.18L103.626,122.35C102.848,122.127 102.126,121.961 101.459,121.849L93.797,119.851C89.021,118.517 86.688,117.352 86.799,116.352C87.023,115.687 89.633,115.408 94.63,115.519C97.184,115.742 99.904,116.131 102.793,116.685L106.291,118.185C106.18,117.962 106.125,117.74 106.125,117.518C106.014,116.519 105.292,114.465 103.958,111.355L102.292,108.191L101.625,106.525L101.293,104.691C101.072,103.914 101.072,102.748 101.293,101.194L101.791,98.196C102.237,96.751 103.014,95.196 104.124,93.53C105.789,91.31 107.901,89.867 110.455,89.2C111.011,89.089 111.564,88.979 112.121,88.867C108.233,88.312 105.067,88.034 102.624,88.034L102.624,88.034ZM10.84,136.341C12.395,132.676 13.449,130.955 14.006,131.178C14.337,131.289 14.116,133.288 13.339,137.174C12.34,142.284 11.953,146.504 12.174,149.835C12.284,155.831 14.451,161.496 18.671,166.825C19.003,167.27 19.504,167.936 20.168,168.824L21.833,170.657C22.611,171.435 23.724,172.6 25.165,174.155C29.053,177.265 31.496,179.152 32.495,179.819C33.273,180.374 35.495,181.872 39.158,184.315C41.712,185.871 43.658,187.26 44.988,188.48C52.319,195.032 57.039,198.976 59.148,200.308L62.98,202.807L64.646,203.472C65.866,201.918 67.366,200.363 69.142,198.808C68.7,198.697 68.254,198.587 67.812,198.475C64.145,197.586 61.259,195.143 59.148,191.146C58.149,189.036 57.762,186.982 57.983,184.982C58.093,183.427 58.481,182.095 59.148,180.984C59.815,179.874 60.426,179.43 60.979,179.652C61.425,179.874 61.702,180.54 61.812,181.651C61.926,182.318 62.092,183.372 62.313,184.817C62.534,186.149 63.036,187.481 63.813,188.813C65.033,191.367 66.868,193.201 69.308,194.31C70.421,194.867 71.586,195.311 72.809,195.644C74.807,194.2 76.03,193.811 76.472,194.478C76.694,194.811 76.472,195.421 75.805,196.309L75.474,196.809C75.363,196.921 75.252,197.087 75.138,197.31C73.918,198.753 72.92,199.974 72.142,200.973C68.921,204.861 67.034,208.025 66.478,210.469L66.478,210.802C66.367,211.246 66.312,211.968 66.312,212.967C66.312,213.698 66.754,214.862 67.642,216.466C67.978,214.578 68.254,213.467 68.475,213.135L69.643,210.802C69.975,210.247 70.587,209.47 71.475,208.469C73.03,207.026 75.138,205.527 77.806,203.973C82.247,201.419 84.912,199.753 85.8,198.976C87.023,197.865 87.967,196.532 88.634,194.977L89.132,192.978L88.133,190.146C88.243,190.035 87.746,188.869 86.633,186.648C85.192,184.205 83.637,181.817 81.971,179.486C81.636,179.042 80.025,176.654 77.139,172.323C75.695,170.101 75.083,168.879 75.308,168.658C75.75,168.325 77.029,168.936 79.137,170.49C81.248,172.156 83.357,174.265 85.468,176.819C87.245,179.042 89.021,181.54 90.797,184.315C92.242,186.538 92.964,187.815 92.964,188.148L94.295,192.313L94.129,194.977L93.462,196.976C92.463,199.197 90.908,201.141 88.8,202.807C88.022,203.251 87.245,203.805 86.467,204.472L87.134,204.472C87.69,204.583 90.3,204.861 94.962,205.305L94.63,203.64L94.796,201.806C95.128,199.475 96.13,196.976 97.796,194.31C98.128,193.755 99.126,192.589 100.792,190.813C102.904,188.259 105.123,186.315 107.455,184.982C110.566,182.983 113.285,181.596 115.618,180.818C118.393,180.04 119.783,180.04 119.783,180.818C119.893,181.151 118.839,181.984 116.617,183.317L110.12,188.148C108.122,189.814 106.18,191.756 104.29,193.978C102.848,195.865 102.126,196.921 102.126,197.142C99.572,201.141 99.071,204.305 100.626,206.638C101.736,208.637 103.737,210.469 106.622,212.134C108.623,213.023 110.732,213.745 112.954,214.3C114.284,214.522 115.895,214.801 117.785,215.132C121.117,215.689 122.893,216.133 123.114,216.466C122.893,216.91 121.061,217.299 117.616,217.631C112.732,217.965 108.513,217.465 104.957,216.133C101.293,214.911 98.404,212.578 96.296,209.136C96.185,209.026 96.13,208.858 96.13,208.637C93.908,209.969 90.687,210.247 86.467,209.47C83.581,208.915 81.636,208.248 80.637,207.47C80.305,207.581 80.025,207.692 79.804,207.804C75.028,210.135 71.976,212.302 70.642,214.3C70.086,215.521 69.643,216.354 69.308,216.798L68.81,218.298L68.645,218.632L70.642,222.796C70.642,223.017 70.697,223.185 70.808,223.295C70.808,223.185 70.863,223.017 70.974,222.796L71.807,221.13C73.473,218.687 74.641,217.187 75.308,216.632C75.971,216.188 76.528,216.021 76.973,216.133L77.806,217.465C78.359,219.352 77.806,221.464 76.141,223.795L74.14,225.628C73.808,225.849 73.531,226.015 73.307,226.128C73.974,226.572 74.696,226.738 75.474,226.627C77.029,226.627 78.529,225.905 79.97,224.462C80.969,223.461 81.746,222.407 82.303,221.296C82.859,220.297 82.97,219.186 82.634,217.965L82.303,217.299L83.136,217.465C83.581,217.576 84.024,218.02 84.469,218.797C84.912,219.798 85.023,220.852 84.801,221.963C84.58,223.629 83.858,225.239 82.634,226.793C80.858,229.347 78.584,230.791 75.805,231.125C73.808,231.346 72.031,230.847 70.476,229.625C69.032,228.737 67.701,227.294 66.478,225.295C65.921,224.628 65.424,223.739 64.978,222.628L63.647,220.297C62.092,217.076 61.259,214.745 61.148,213.301C61.038,212.079 61.204,210.747 61.646,209.302L61.646,209.47C62.092,207.804 62.87,206.138 63.979,204.472L62.313,204.139C60.316,203.584 58.816,203.028 57.817,202.473C57.261,202.252 56.538,201.918 55.65,201.474C55.65,201.806 55.149,202.363 54.15,203.14C52.82,203.918 51.762,204.583 50.985,205.138C50.542,205.471 50.096,205.915 49.654,206.472C49.986,206.693 50.321,206.971 50.653,207.305L52.153,208.97C53.929,211.524 54.928,213.19 55.149,213.968C55.374,214.745 55.429,215.3 55.318,215.633C54.983,216.078 54.485,216.243 53.818,216.133C51.931,215.799 50.152,214.633 48.486,212.634C48.486,212.967 48.545,213.356 48.655,213.8C48.766,215.466 49.098,216.743 49.654,217.631C50.096,218.742 51.209,219.409 52.986,219.63C54.541,219.964 55.429,220.297 55.65,220.631L55.318,221.13C54.762,221.574 54.04,221.908 53.151,222.129C51.818,222.352 50.874,222.407 50.321,222.297C48.766,222.518 47.321,221.796 45.987,220.13C44.988,218.91 44.211,217.132 43.658,214.801L43.157,211.469C43.046,210.358 43.157,208.97 43.489,207.305L44.657,204.638C45.766,203.195 47.211,202.14 48.987,201.474C50.542,200.807 52.097,200.474 53.652,200.474L54.15,200.474C51.264,198.697 47.266,195.81 42.158,191.811C41.159,191.034 39.324,189.814 36.66,188.148C33.663,186.482 31.33,185.038 29.665,183.816C28.22,183.038 25.611,181.096 21.833,177.986L14.337,169.657C13.117,168.214 11.953,166.27 10.84,163.827C8.732,159.496 7.733,154.832 7.843,149.835C7.954,145.282 8.953,140.784 10.84,136.341L10.84,136.341ZM101.293,10.241C104.625,9.243 109.287,8.131 115.286,6.91L127.279,4.245C142.381,1.024 154.208,-0.363 162.761,0.081C166.093,0.081 169.59,0.635 173.254,1.747C174.142,2.191 175.31,2.745 176.751,3.412L179.25,5.078C179.917,5.633 180.694,6.689 181.583,8.244L182.916,10.908L182.249,10.075C181.361,8.52 180.141,7.133 178.586,5.911L176.087,4.579C174.643,4.024 173.533,3.578 172.756,3.246C169.2,2.579 165.868,2.301 162.761,2.413C160.207,2.413 157.263,2.635 153.931,3.079C153.043,3.412 152.21,3.856 151.433,4.411C146.325,7.743 142.105,12.74 138.773,19.403L137.107,22.735L134.609,29.899L134.941,31.397L136.772,36.562C139.772,36.229 142.772,36.116 145.768,36.229C148.768,36.45 151.543,36.783 154.097,37.227L161.095,38.893C164.538,40.004 167.648,41.781 170.423,44.224C172.199,45.668 173.699,47.222 174.919,48.888C175.586,49.665 176.309,50.554 177.086,51.554L178.085,53.052C177.864,53.052 177.363,52.774 176.585,52.219C174.252,50.22 171.698,48.167 168.923,46.056C165.702,44.169 162.706,42.892 159.927,42.225C157.152,41.781 155.041,41.392 153.599,41.058L145.602,40.726C142.938,40.726 140.104,40.892 137.107,41.226L137.107,41.392C136.772,42.059 136.219,42.669 135.442,43.225C134.996,43.557 133.997,44.058 132.442,44.723L126.778,46.723C124.113,47.721 122.447,48.444 121.78,48.888L120.45,50.054C120.115,50.498 119.171,51.665 117.616,53.552C114.174,58.882 112.287,63.047 111.955,66.045C111.398,69.822 112.677,73.987 115.784,78.538L118.618,82.371C119.282,83.259 119.561,83.869 119.451,84.203C119.34,84.313 118.729,84.037 117.616,83.37L115.784,82.203L113.621,80.204C111.73,78.207 110.344,76.263 109.456,74.374C109.346,74.153 108.844,72.763 107.956,70.209L107.621,65.713C107.846,63.602 108.122,62.159 108.454,61.381L109.788,57.384C110.344,56.163 111.564,53.94 113.451,50.721C115.007,48.499 116.672,46.667 118.449,45.223C113.565,46.778 107.621,49.055 100.626,52.053C91.855,55.496 83.858,59.437 76.638,63.88C70.753,67.434 66.312,71.098 63.312,74.875C62.203,76.095 61.038,77.595 59.815,79.371C59.037,80.593 58.539,81.149 58.315,81.037C57.983,81.037 58.038,80.316 58.481,78.872C59.037,77.095 59.925,75.207 61.148,73.209C63.924,68.656 68.309,64.379 74.306,60.382C81.746,55.273 89.854,50.942 98.629,47.39C109.622,42.613 118.283,39.56 124.614,38.228C126.947,37.671 129.276,37.283 131.609,37.061L130.109,32.398C129.777,30.953 129.667,29.899 129.777,29.232C130.444,26.789 130.942,25.233 131.277,24.568C131.834,23.124 133.109,20.682 135.107,17.238C138.438,11.352 142.381,6.965 146.936,4.079C141.383,4.967 135.107,6.244 128.112,7.91L115.95,10.575C108.734,12.463 104.348,13.74 102.793,14.406C97.239,16.628 92.688,19.016 89.132,21.57C85.023,24.345 80.637,28.066 75.971,32.729C67.2,41.725 60.091,53.052 54.651,66.712L51.486,77.54C50.487,82.316 50.21,85.979 50.653,88.533C51.209,92.087 53.207,94.809 56.649,96.696C57.983,97.474 59.87,98.307 62.313,99.195L68.81,101.527C69.032,101.638 71.088,102.692 74.973,104.691C77.527,106.357 79.472,108.078 80.803,109.856C82.914,112.742 83.802,115.963 83.467,119.518C83.357,123.183 82.469,126.791 80.803,130.345C79.361,133.677 76.694,136.73 72.809,139.507L63.813,146.504C60.703,150.613 58.149,153.721 56.151,155.831C54.375,157.941 52.65,159.384 50.985,160.162C48.655,161.273 46.322,161.717 43.99,161.496C41.104,161.273 38.992,160.884 37.658,160.329C35.218,159.552 33.383,158.219 32.163,156.331C30.829,154.444 30.276,152.334 30.497,150.001C30.719,148.002 31.164,146.115 31.828,144.337C33.051,141.562 34.883,138.619 37.327,135.508C41.104,131.178 45.099,128.235 49.319,126.68C50.763,126.236 52.097,126.013 53.317,126.013C53.096,125.792 52.93,125.569 52.82,125.348C51.707,123.57 49.377,122.405 45.821,121.849C45.489,121.738 45.099,121.683 44.657,121.683C44.435,122.571 43.489,123.737 41.823,125.18C39.493,126.846 37.327,127.679 35.329,127.679L33.829,127.014L33.829,126.514C33.829,126.181 33.94,125.792 34.161,125.348C34.607,124.347 35.937,123.07 38.159,121.517L36.995,121.517C34.216,121.738 32.775,121.904 32.661,122.016L28.832,122.849C26.945,123.293 25.777,123.682 25.334,124.015C24.222,124.46 22.334,125.569 19.67,127.347C16.449,129.457 14.673,130.566 14.337,130.679C12.34,131.788 10.508,132.51 8.842,132.844C7.508,132.954 6.454,132.954 5.677,132.844C5.345,132.844 4.844,132.676 4.177,132.344L3.178,131.512C2.069,130.623 1.236,129.457 0.679,128.012C0.123,126.791 -0.043,125.569 0.178,124.347C0.292,123.127 0.735,122.237 1.512,121.683L2.345,121.016L2.846,121.349C4.177,122.46 5.01,123.848 5.345,125.514L5.345,126.347L4.678,125.681C4.343,125.014 3.79,124.46 3.012,124.015C2.901,124.793 3.123,125.626 3.679,126.514C4.343,127.624 4.899,128.291 5.345,128.512C5.898,128.845 6.233,128.958 6.344,128.845C6.565,128.958 7.066,128.901 7.844,128.679C9.509,128.235 12.506,126.459 16.836,123.349C20.057,121.128 22.169,119.796 23.167,119.35C24.166,118.795 25.555,118.296 27.332,117.852L31.828,116.851C32.053,116.851 33.718,116.741 36.825,116.519C40.492,116.407 43.824,116.796 46.82,117.684C48.6,118.018 50.376,118.795 52.153,120.017C53.597,121.239 54.596,122.626 55.149,124.181C55.705,125.737 55.761,126.901 55.318,127.679C54.983,128.567 54.707,129.013 54.485,129.013C54.261,129.013 54.095,128.567 53.984,127.679C53.874,127.235 53.763,126.846 53.652,126.514C52.54,126.846 51.32,127.402 49.986,128.18C46.322,130.067 42.77,133.122 39.324,137.342C37.327,140.006 35.827,142.726 34.828,145.503C33.494,149.389 33.608,152.334 35.16,154.331C36.604,156.443 39.604,157.497 44.156,157.497C47.487,157.608 50.487,156.109 53.151,152.999C53.708,152.222 54.873,150.723 56.649,148.501C58.204,146.281 59.538,144.56 60.647,143.338L70.141,135.676C73.03,133.677 75.083,131.233 76.306,128.346C77.527,125.569 78.249,122.571 78.47,119.35C78.694,115.02 76.638,111.577 72.308,109.023C68.866,107.358 67.034,106.469 66.81,106.357C61.038,104.47 56.76,102.692 53.984,101.026C51.541,99.473 49.709,97.918 48.486,96.363C46.82,94.363 45.821,92.087 45.49,89.534C44.823,85.868 45.154,81.483 46.488,76.373L50.152,64.88C55.595,50.998 63.091,39.171 72.64,29.398C77.416,24.623 82.137,20.737 86.799,17.737C90.687,15.183 95.518,12.685 101.293,10.241Z" />
</svg>
