<svg viewBox="0 0 300 300" version="1.1" xmlns="http://www.w3.org/2000/svg">
    <defs>
        <style>
            @media (prefers-color-scheme: dark) {
                #dragon {
                    fill: #e4e0d1;
                }
            }
        </style>
    </defs>

    <clipPath id="_clip1">
        <rect x="0" y="0" width="300" height="300" />
    </clipPath>
    <g clip-path="url(#_clip1)">
        <path id="dragon" fill="#2f2825"
            d="M79.178,297.065C79.178,296.036 79.286,295.08 79.51,294.199C78.713,297.132 78.455,300.22 78.735,303.458C78.984,305.392 79.389,307.267 79.949,309.082C79.729,308.316 79.544,307.545 79.398,306.765C79.105,305.736 78.958,304.121 78.958,301.916C78.812,300.741 78.885,299.122 79.178,297.065ZM161.86,244.149L161.64,244.149L166.27,242.164C166.27,242.017 167.006,241.795 168.475,241.503L173.323,241.061C177.733,241.061 180.084,241.576 180.382,242.605C180.821,243.781 178.836,245.03 174.426,246.354L168.031,248.337L165.167,249.881L164.948,249.881C162.299,251.056 160.538,252.673 159.655,254.732C158.919,257.083 158.26,258.627 157.67,259.361C156.934,260.832 156.275,261.566 155.685,261.566C155.245,261.42 154.953,260.537 154.802,258.922C154.509,257.305 154.436,255.466 154.582,253.41C154.879,251.351 155.538,249.661 156.568,248.337C157.743,246.573 159.509,245.178 161.86,244.149ZM202.65,238.637C202.943,239.225 203.089,240.327 203.089,241.944C202.65,243.854 201.474,245.471 199.562,246.795C198.533,247.676 197.284,248.41 195.815,249L192.065,250.322C186.923,251.793 183.392,252.82 181.484,253.41C178.396,254.29 176.191,255.32 174.869,256.495C172.957,258.112 171.635,260.537 170.899,263.771L170.236,267.741L169.797,268.402L169.133,267.741C168.255,267.005 167.665,265.683 167.372,263.771C167.079,262.007 167.079,260.39 167.372,258.922L168.474,255.615C168.621,255.32 169.43,254.217 170.899,252.307C172.811,250.249 175.601,248.485 179.279,247.015C181.04,246.427 184.645,245.398 190.079,243.927L193.387,243.046C195.592,242.605 196.918,241.871 197.357,240.842C197.947,239.959 197.43,238.342 195.815,235.991C194.64,234.078 194.343,232.903 194.933,232.464C195.372,231.874 196.621,232.242 198.679,233.566C199.123,234.154 200.001,235.108 201.328,236.432L202.206,237.313L202.65,238.637ZM215.879,221.439C215.435,223.203 214.186,224.966 212.128,226.73C210.513,228.2 208.747,229.376 206.84,230.259L203.752,231.139C199.196,232.315 193.83,232.315 187.655,231.139C184.421,230.405 181.777,229.376 179.718,228.054C178.396,227.318 177.514,226.657 177.074,226.069L176.85,225.408L180.821,224.747L188.318,225.408C195.079,225.408 199.708,225.113 202.206,224.525C202.503,224.525 203.309,224.378 204.635,224.083C206.25,223.496 207.718,222.835 209.045,222.1C209.923,221.659 211.249,220.849 213.011,219.674C214.484,218.645 215.435,218.279 215.879,218.571C216.615,218.866 216.615,219.822 215.879,221.439ZM164.724,67.981C164.577,67.834 161.416,67.907 155.245,68.202C149.216,68.202 142.753,68.422 135.841,68.863C128.494,69.156 122.319,69.966 117.319,71.288L113.792,71.949L111.148,72.832C109.68,73.273 108.797,73.346 108.5,73.051C108.5,72.463 109.09,71.802 110.266,71.068L112.69,69.305L116.217,67.761C120.924,65.702 127.319,64.159 135.402,63.129C141.28,62.395 147.821,61.881 155.026,61.588C161.197,61.146 164.504,60.998 164.948,61.146C171.265,60.998 181.114,62.322 194.489,65.115C202.869,67.173 210.074,69.378 216.098,71.729C226.537,75.846 234.327,80.917 239.469,86.944C242.703,90.47 244.688,93.558 245.425,96.202L246.083,97.968C245.791,97.968 245.278,97.526 244.542,96.644C240.571,92.675 238.074,90.251 237.044,89.368C231.02,84.076 223.303,79.961 213.894,77.022C208.898,75.256 201.913,73.419 192.947,71.51C189.567,70.92 186.333,70.407 183.245,69.966C181.04,70.7 178.762,71.583 176.411,72.612C173.621,74.227 171.635,76.066 170.46,78.124C169.577,79.446 168.914,81.063 168.474,82.973C168.474,83.563 168.401,84.517 168.255,85.841C168.255,87.605 168.328,88.634 168.474,88.927L169.577,92.234L171.782,95.983C174.279,100.834 175.601,104.214 175.748,106.124C176.338,107.595 176.484,109.065 176.191,110.534C177.074,111.124 178.103,111.931 179.279,112.96L182.362,115.607L186.113,120.677C186.553,121.412 187.142,122.66 187.875,124.426C188.904,127.07 189.201,128.614 188.757,129.055C188.318,129.055 187.069,128.173 185.011,126.409L178.396,119.795C176.484,118.472 174.572,117.297 172.665,116.268C171.782,117.148 170.753,118.031 169.577,118.914L164.948,122.441L155.685,132.582L151.938,138.758L148.411,146.474C147.675,148.089 147.012,149.633 146.426,151.104C147.455,151.104 149.216,151.25 151.718,151.545C157.157,152.279 162.962,153.601 169.133,155.514C188.391,161.835 203.825,171.389 215.435,184.177C222.493,191.967 227.859,200.42 231.532,209.532C235.059,219.086 237.044,227.759 237.484,235.549C237.927,243.046 237.781,249.439 237.044,254.732L235.722,263.11C232.781,278.397 227.562,292.287 220.069,304.782C213.011,316.836 204.265,326.609 193.83,334.106C184.718,340.428 174.06,344.616 161.86,346.674C152.451,348.438 142.602,348.952 132.314,348.218C125.26,347.482 120.997,346.967 119.524,346.674C115.115,345.94 111.075,344.838 107.398,343.367C100.637,340.428 94.758,336.531 89.759,331.682C80.647,322.714 75.871,313.307 75.427,303.458C75.281,295.814 77.486,289.568 82.042,284.717C84.1,282.807 86.451,281.044 89.1,279.426C91.744,278.692 93.217,278.251 93.51,278.102C96.451,277.368 98.949,277.883 101.007,279.646L102.549,280.749L103.431,282.292C103.724,282.439 104.241,283.322 104.973,284.939C106.295,288.024 106.958,291.258 106.958,294.639C107.251,299.197 107.475,301.695 107.621,302.136C107.914,304.487 108.5,305.736 109.383,305.885C110.266,306.178 111.368,306.031 112.69,305.443L115.338,303.899C116.953,302.724 117.909,302.136 118.202,302.136C118.202,302.429 117.397,303.312 115.778,304.782L113.353,306.765C112.763,307.355 112.104,307.721 111.368,307.868L110.046,308.09L108.5,308.09L107.178,307.207L106.076,305.663C105.49,304.782 105.046,303.68 104.753,302.356C104.314,300.887 103.944,298.387 103.651,294.86C103.065,291.185 102.256,288.392 101.227,286.482L100.124,284.497C99.831,284.204 99.315,283.763 98.578,283.175C97.403,282.439 96.08,282.292 94.612,282.734C90.788,284.056 87.997,286.775 86.232,290.892C85.203,293.536 84.69,295.89 84.69,297.946C84.397,299.122 84.397,300.373 84.69,301.695L84.69,303.899L85.129,305.885C86.159,311.175 89.393,315.953 94.832,320.216C99.978,324.331 106.373,327.199 114.012,328.814C130.036,332.343 147.382,329.328 166.05,319.775C169.133,318.746 174.133,315.658 181.04,310.514C185.45,307.134 189.347,303.238 192.728,298.829C195.815,295.007 198.976,289.422 202.206,282.073C205.001,275.31 206.693,269.283 207.279,263.993C207.869,260.317 207.796,254.732 207.059,247.234C206.616,242.973 205.737,239.225 204.411,235.991C202.943,233.493 202.284,232.169 202.43,232.022C202.576,231.727 203.016,231.874 203.752,232.464C204.635,233.051 205.44,233.932 206.177,235.108C208.235,238.049 209.63,241.871 210.367,246.573C211.103,249.22 211.542,252.012 211.689,254.951C211.982,259.656 212.055,262.817 211.908,264.434C211.469,270.312 210.001,276.927 207.499,284.278C204.265,292.214 201.03,298.314 197.796,302.577C194.567,306.987 190.303,311.324 185.011,315.585C181.484,318.38 177.806,320.877 173.987,323.082C170.899,324.846 169.211,325.802 168.914,325.948C148.924,336.092 130.109,339.177 112.47,335.209C103.797,333.15 96.524,329.697 90.642,324.846C87.554,322.199 85.056,319.407 83.144,316.468C85.5,320.584 88.807,324.553 93.066,328.375C98.212,333.077 103.797,336.458 109.826,338.516C113.207,339.838 116.807,340.721 120.627,341.162C120.924,341.309 125.036,341.75 132.977,342.484C142.529,342.926 151.865,342.265 160.977,340.501C172.001,338.589 181.704,334.621 190.079,328.594C199.489,321.687 207.572,312.499 214.333,301.034C221.391,289.275 226.386,276.192 229.327,261.788L230.43,253.849C231.313,248.264 231.532,242.312 231.093,235.991C230.947,228.788 229.181,220.776 225.801,211.957C222.274,202.845 217.42,194.908 211.249,188.145C200.957,176.091 186.479,166.391 167.811,159.04C162.962,157.131 157.45,155.294 151.275,153.528C148.777,152.794 147.012,152.279 145.982,151.987C144.958,155.072 144.148,158.087 143.558,161.026C143.265,162.496 142.972,164.186 142.675,166.096C142.382,167.421 142.09,168.155 141.797,168.301C141.353,168.45 140.914,167.787 140.47,166.318C140.031,164.701 139.811,162.862 139.811,160.806C139.958,156.248 141.06,150.811 143.119,144.489C144.441,139.345 146.792,134.126 150.173,128.836C152.821,125.014 154.582,122.809 155.465,122.221L160.538,117.148L166.05,113.402C165.021,113.107 164.065,112.887 163.182,112.739L153.041,110.094C146.719,108.329 143.631,106.787 143.778,105.463C144.075,104.582 147.528,104.214 154.143,104.361C157.523,104.656 161.124,105.17 164.948,105.904L169.577,107.89C169.431,107.595 169.357,107.3 169.357,107.007C169.211,105.685 168.255,102.965 166.489,98.848L164.284,94.66L163.402,92.456L162.962,90.029C162.67,89 162.67,87.456 162.962,85.4L163.621,81.431C164.211,79.519 165.24,77.461 166.709,75.256C168.914,72.317 171.709,70.407 175.089,69.524C175.825,69.378 176.558,69.231 177.294,69.083C172.148,68.349 167.958,67.981 164.724,67.981L164.724,67.981ZM43.237,131.921C45.296,127.07 46.691,124.792 47.427,125.087C47.867,125.233 47.574,127.88 46.545,133.024C45.223,139.787 44.71,145.372 45.003,149.782C45.149,157.718 48.017,165.216 53.603,172.269C54.042,172.859 54.705,173.74 55.584,174.916L57.788,177.342C58.818,178.372 60.29,179.913 62.198,181.972C67.344,186.089 70.578,188.586 71.9,189.469C72.93,190.203 75.871,192.186 80.72,195.42C84.1,197.479 86.675,199.318 88.437,200.933C98.139,209.606 104.387,214.825 107.178,216.588L112.251,219.896L114.456,220.776C116.071,218.72 118.056,216.661 120.407,214.603C119.821,214.457 119.231,214.31 118.646,214.162C113.792,212.986 109.973,209.752 107.178,204.462C105.856,201.669 105.343,198.949 105.636,196.303C105.783,194.245 106.295,192.481 107.178,191.011C108.061,189.542 108.87,188.954 109.602,189.247C110.192,189.542 110.558,190.423 110.705,191.894C110.856,192.776 111.075,194.172 111.368,196.084C111.661,197.847 112.324,199.61 113.353,201.374C114.968,204.754 117.397,207.181 120.627,208.65C122.099,209.386 123.641,209.974 125.26,210.415C127.904,208.503 129.524,207.988 130.109,208.871C130.402,209.313 130.109,210.12 129.226,211.296L128.787,211.957C128.641,212.105 128.494,212.325 128.344,212.62C126.729,214.53 125.407,216.147 124.377,217.469C120.114,222.615 117.617,226.803 116.88,230.037L116.88,230.478C116.734,231.066 116.661,232.022 116.661,233.344C116.661,234.311 117.246,235.853 118.422,237.976C118.865,235.476 119.231,234.005 119.524,233.566L121.07,230.478C121.509,229.744 122.319,228.715 123.495,227.391C125.553,225.481 128.344,223.496 131.875,221.439C137.753,218.059 141.28,215.854 142.456,214.825C144.075,213.354 145.324,211.591 146.206,209.532L146.865,206.886L145.543,203.137C145.69,202.991 145.031,201.447 143.558,198.508C141.65,195.274 139.592,192.113 137.387,189.028C136.943,188.44 134.812,185.279 130.992,179.547C129.08,176.606 128.27,174.989 128.568,174.696C129.153,174.255 130.846,175.064 133.636,177.121C136.431,179.325 139.221,182.118 142.016,185.499C144.368,188.44 146.719,191.747 149.07,195.42C150.982,198.362 151.938,200.052 151.938,200.493L153.699,206.005L153.48,209.532L152.597,212.179C151.275,215.118 149.217,217.691 146.426,219.896C145.397,220.483 144.368,221.218 143.338,222.1L144.221,222.1C144.958,222.247 148.411,222.615 154.582,223.203L154.143,220.998L154.363,218.571C154.802,215.486 156.128,212.179 158.333,208.65C158.772,207.915 160.094,206.371 162.299,204.02C165.094,200.64 168.031,198.067 171.119,196.303C175.235,193.657 178.836,191.82 181.923,190.791C185.597,189.762 187.435,189.762 187.435,190.791C187.582,191.232 186.186,192.335 183.245,194.098L174.645,200.493C172.001,202.698 169.43,205.269 166.929,208.21C165.021,210.708 164.065,212.105 164.065,212.398C160.684,217.691 160.021,221.879 162.08,224.966C163.548,227.613 166.196,230.037 170.016,232.242C172.665,233.417 175.455,234.373 178.396,235.108C180.158,235.403 182.289,235.771 184.791,236.21C189.201,236.947 191.552,237.534 191.845,237.976C191.552,238.564 189.128,239.078 184.567,239.517C178.103,239.959 172.518,239.298 167.811,237.534C162.962,235.917 159.138,232.83 156.348,228.274C156.201,228.127 156.128,227.905 156.128,227.613C153.187,229.376 148.924,229.744 143.338,228.715C139.519,227.981 136.943,227.098 135.621,226.069C135.182,226.215 134.812,226.362 134.519,226.51C128.197,229.596 124.158,232.464 122.392,235.108C121.656,236.725 121.07,237.827 120.627,238.415L119.968,240.4L119.748,240.842L122.392,246.354C122.392,246.647 122.466,246.868 122.612,247.015C122.612,246.868 122.685,246.647 122.832,246.354L123.934,244.149C126.139,240.915 127.685,238.93 128.568,238.195C129.446,237.608 130.182,237.386 130.772,237.534L131.875,239.298C132.607,241.795 131.875,244.59 129.67,247.676L127.022,250.102C126.582,250.395 126.216,250.615 125.919,250.763C126.802,251.351 127.758,251.571 128.787,251.424C130.846,251.424 132.831,250.468 134.739,248.559C136.061,247.234 137.09,245.839 137.826,244.369C138.563,243.046 138.709,241.576 138.265,239.959L137.826,239.078L138.929,239.298C139.519,239.444 140.104,240.032 140.694,241.061C141.28,242.385 141.426,243.781 141.133,245.251C140.841,247.456 139.885,249.588 138.265,251.644C135.914,255.025 132.904,256.937 129.226,257.378C126.582,257.671 124.231,257.01 122.173,255.393C120.261,254.217 118.499,252.307 116.88,249.661C116.144,248.778 115.485,247.603 114.895,246.132L113.134,243.046C111.075,238.783 109.973,235.698 109.826,233.786C109.68,232.169 109.9,230.405 110.485,228.493L110.485,228.715C111.075,226.51 112.104,224.305 113.573,222.1L111.368,221.659C108.724,220.925 106.739,220.188 105.417,219.454C104.68,219.161 103.724,218.72 102.549,218.132C102.549,218.571 101.885,219.308 100.563,220.337C98.802,221.366 97.403,222.247 96.373,222.981C95.788,223.422 95.198,224.01 94.612,224.747C95.051,225.039 95.495,225.408 95.934,225.849L97.919,228.054C100.271,231.434 101.593,233.639 101.885,234.668C102.183,235.698 102.256,236.432 102.109,236.873C101.666,237.461 101.007,237.681 100.124,237.534C97.626,237.093 95.271,235.549 93.066,232.903C93.066,233.344 93.144,233.859 93.29,234.447C93.436,236.652 93.876,238.342 94.612,239.517C95.198,240.988 96.67,241.871 99.022,242.164C101.08,242.605 102.256,243.046 102.549,243.488L102.109,244.149C101.373,244.737 100.417,245.178 99.241,245.471C97.476,245.766 96.227,245.839 95.495,245.693C93.436,245.986 91.524,245.03 89.759,242.825C88.437,241.21 87.407,238.856 86.675,235.771L86.012,231.361C85.866,229.891 86.012,228.054 86.451,225.849L87.997,222.32C89.466,220.41 91.378,219.013 93.729,218.132C95.788,217.249 97.846,216.808 99.905,216.808L100.563,216.808C96.744,214.457 91.451,210.635 84.69,205.342C83.368,204.313 80.939,202.698 77.412,200.493C73.446,198.288 70.359,196.376 68.154,194.759C66.242,193.73 62.788,191.159 57.788,187.042L47.867,176.018C46.252,174.108 44.71,171.535 43.237,168.301C40.447,162.569 39.125,156.396 39.271,149.782C39.418,143.755 40.74,137.801 43.237,131.921L43.237,131.921ZM162.962,-34.986C167.372,-36.308 173.543,-37.779 181.484,-39.396L197.357,-42.923C217.347,-47.186 233.001,-49.023 244.322,-48.435C248.732,-48.435 253.361,-47.701 258.21,-46.23C259.386,-45.642 260.932,-44.908 262.839,-44.025L266.147,-41.821C267.03,-41.086 268.059,-39.689 269.234,-37.63L271,-34.104L270.117,-35.206C268.942,-37.264 267.327,-39.101 265.268,-40.718L261.961,-42.482C260.049,-43.216 258.58,-43.806 257.551,-44.245C252.844,-45.128 248.435,-45.496 244.322,-45.347C240.942,-45.347 237.044,-45.055 232.635,-44.467C231.459,-44.025 230.357,-43.438 229.327,-42.703C222.567,-38.294 216.981,-31.679 212.571,-22.86L210.367,-18.45L207.059,-8.967L207.499,-6.984L209.923,-0.148C213.894,-0.589 217.864,-0.738 221.83,-0.589C225.801,-0.297 229.474,0.145 232.854,0.733L242.117,2.937C246.673,4.408 250.79,6.759 254.464,9.993C256.815,11.905 258.8,13.962 260.415,16.167C261.298,17.196 262.254,18.371 263.283,19.696L264.605,21.679C264.312,21.679 263.649,21.31 262.62,20.576C259.532,17.93 256.152,15.213 252.478,12.418C248.215,9.92 244.249,8.23 240.571,7.347C236.898,6.759 234.103,6.245 232.196,5.803L221.611,5.364C218.084,5.364 214.333,5.584 210.367,6.025L210.367,6.245C209.923,7.128 209.191,7.935 208.162,8.671C207.572,9.111 206.25,9.774 204.191,10.654L196.694,13.301C193.167,14.623 190.962,15.579 190.079,16.167L188.318,17.71C187.875,18.298 186.626,19.842 184.567,22.34C180.011,29.396 177.514,34.908 177.074,38.876C176.338,43.876 178.03,49.388 182.143,55.412L185.894,60.485C186.772,61.661 187.143,62.468 186.996,62.91C186.85,63.056 186.04,62.69 184.567,61.807L182.143,60.264L179.279,57.617C176.777,54.973 174.943,52.4 173.767,49.9C173.621,49.607 172.957,47.769 171.782,44.388L171.338,38.437C171.635,35.642 172.001,33.732 172.441,32.703L174.206,27.413C174.943,25.796 176.557,22.854 179.055,18.593C181.114,15.652 183.318,13.227 185.67,11.315C179.206,13.374 171.338,16.388 162.08,20.357C150.47,24.913 139.885,30.13 130.329,36.01C122.539,40.715 116.661,45.564 112.69,50.564C111.222,52.178 109.68,54.164 108.061,56.515C107.032,58.132 106.373,58.868 106.076,58.72C105.636,58.72 105.709,57.766 106.295,55.854C107.031,53.503 108.207,51.003 109.826,48.359C113.5,42.332 119.305,36.671 127.241,31.381C137.09,24.618 147.821,18.886 159.435,14.183C173.987,7.862 185.45,3.82 193.83,2.057C196.918,1.32 200.001,0.806 203.089,0.513L201.104,-5.66C200.664,-7.572 200.518,-8.967 200.664,-9.85C201.547,-13.084 202.206,-15.143 202.65,-16.023C203.386,-17.935 205.074,-21.167 207.718,-25.726C212.128,-33.516 217.347,-39.323 223.376,-43.143C216.025,-41.967 207.718,-40.277 198.46,-38.072L182.362,-34.545C172.811,-32.045 167.006,-30.355 164.948,-29.474C157.597,-26.533 151.572,-23.372 146.865,-19.992C141.426,-16.318 135.621,-11.394 129.446,-5.221C117.836,6.686 108.427,21.679 101.227,39.759L97.036,54.09C95.714,60.412 95.348,65.261 95.934,68.642C96.67,73.346 99.315,76.948 103.871,79.446C105.636,80.475 108.134,81.578 111.368,82.753L119.968,85.841C120.261,85.988 122.982,87.383 128.124,90.029C131.504,92.234 134.08,94.512 135.841,96.865C138.636,100.685 139.811,104.948 139.368,109.653C139.221,114.504 138.046,119.28 135.841,123.985C133.933,128.394 130.402,132.436 125.26,136.111L113.353,145.372C109.236,150.811 105.856,154.926 103.212,157.718C100.861,160.511 98.578,162.421 96.373,163.45C93.29,164.921 90.202,165.509 87.115,165.216C83.295,164.921 80.5,164.406 78.735,163.672C75.505,162.643 73.076,160.879 71.461,158.379C69.695,155.882 68.963,153.089 69.256,150.001C69.549,147.355 70.139,144.857 71.018,142.504C72.637,138.831 75.061,134.936 78.295,130.819C83.295,125.087 88.583,121.192 94.168,119.133C96.08,118.546 97.846,118.251 99.461,118.251C99.168,117.958 98.949,117.663 98.802,117.37C97.329,115.017 94.246,113.475 89.539,112.739C89.1,112.592 88.583,112.519 87.997,112.519C87.705,113.695 86.451,115.238 84.247,117.148C81.163,119.353 78.295,120.455 75.651,120.455L73.666,119.575L73.666,118.914C73.666,118.472 73.812,117.958 74.105,117.37C74.695,116.046 76.456,114.356 79.398,112.299L77.856,112.299C74.178,112.592 72.271,112.812 72.12,112.96L67.051,114.063C64.554,114.651 63.008,115.165 62.422,115.607C60.949,116.194 58.452,117.663 54.925,120.016C50.661,122.809 48.31,124.277 47.867,124.426C45.223,125.894 42.798,126.85 40.593,127.292C38.828,127.438 37.432,127.438 36.403,127.292C35.964,127.292 35.301,127.07 34.418,126.631L33.096,125.528C31.627,124.353 30.525,122.809 29.789,120.897C29.052,119.28 28.833,117.663 29.125,116.046C29.276,114.431 29.862,113.253 30.891,112.519L31.993,111.636L32.657,112.078C34.418,113.548 35.52,115.385 35.964,117.59L35.964,118.692L35.081,117.811C34.638,116.929 33.905,116.194 32.876,115.607C32.73,116.636 33.023,117.738 33.759,118.914C34.638,120.382 35.374,121.265 35.964,121.558C36.696,121.999 37.14,122.148 37.286,121.999C37.579,122.148 38.242,122.073 39.271,121.78C41.476,121.192 45.442,118.841 51.174,114.724C55.437,111.785 58.232,110.021 59.554,109.431C60.876,108.697 62.715,108.036 65.066,107.448L71.018,106.124C71.315,106.124 73.52,105.978 77.632,105.685C82.485,105.536 86.895,106.051 90.861,107.226C93.217,107.668 95.568,108.697 97.919,110.314C99.831,111.931 101.153,113.768 101.885,115.826C102.622,117.885 102.695,119.426 102.109,120.456C101.666,121.631 101.3,122.221 101.007,122.221C100.71,122.221 100.49,121.631 100.344,120.456C100.197,119.868 100.051,119.353 99.905,118.914C98.432,119.353 96.817,120.089 95.051,121.119C90.202,123.616 85.5,127.66 80.939,133.245C78.295,136.772 76.31,140.372 74.988,144.048C73.222,149.192 73.373,153.089 75.427,155.733C77.339,158.528 81.31,159.923 87.334,159.923C91.744,160.07 95.714,158.087 99.241,153.97C99.978,152.94 101.519,150.957 103.871,148.016C105.929,145.077 107.695,142.799 109.163,141.182L121.729,131.041C125.553,128.394 128.27,125.16 129.89,121.338C131.504,117.663 132.461,113.695 132.753,109.431C133.05,103.7 130.329,99.143 124.597,95.763C120.041,93.558 117.617,92.382 117.319,92.234C109.68,89.736 104.017,87.383 100.344,85.178C97.11,83.122 94.685,81.063 93.066,79.005C90.861,76.359 89.539,73.346 89.1,69.966C88.217,65.115 88.656,59.31 90.422,52.547L95.271,37.334C102.475,18.959 112.397,3.306 125.036,-9.631C131.358,-15.95 137.607,-21.094 143.778,-25.065C148.924,-28.445 155.319,-31.752 162.962,-34.986Z" />
    </g>
</svg>
