<svg viewBox="0 0 300 300" version="1.1" xmlns="http://www.w3.org/2000/svg">
    <defs>
        <style>
            @media (prefers-color-scheme: dark) {
                #dragon {
                    fill: #e4e0d1;
                }
            }
        </style>
    </defs>

    <clipPath id="_clip1">
        <rect x="0" y="0" width="300" height="300" />
    </clipPath>
    <g clip-path="url(#_clip1)">
        <path id="dragon" fill="#2f2825"
            d="M115.794,430.761C115.794,428.796 116,426.971 116.428,425.29C114.907,430.888 114.413,436.783 114.948,442.965C115.425,446.657 116.197,450.237 117.266,453.702C116.847,452.239 116.493,450.767 116.214,449.279C115.655,447.314 115.375,444.231 115.375,440.022C115.096,437.778 115.235,434.687 115.794,430.761ZM273.642,329.739L273.222,329.739L282.06,325.949C282.06,325.669 283.466,325.246 286.27,324.687L295.527,323.844C303.945,323.844 308.434,324.827 309.001,326.791C309.84,329.036 306.05,331.42 297.631,333.948L285.423,337.734L279.956,340.681L279.536,340.681C274.48,342.926 271.118,346.013 269.433,349.942C268.027,354.431 266.769,357.378 265.643,358.78C264.237,361.588 262.979,362.989 261.853,362.989C261.014,362.71 260.455,361.025 260.167,357.942C259.608,354.855 259.468,351.344 259.748,347.418C260.315,343.489 261.573,340.262 263.538,337.734C265.782,334.367 269.153,331.704 273.642,329.739ZM351.513,319.216C352.072,320.338 352.352,322.442 352.352,325.53C351.513,329.176 349.269,332.263 345.618,334.791C343.654,336.472 341.269,337.874 338.466,339L331.305,341.524C321.489,344.331 314.748,346.292 311.106,347.418C305.211,349.1 301.002,351.065 298.478,353.309C294.828,356.396 292.304,361.025 290.898,367.199L289.632,374.779L288.793,376.041L287.527,374.779C285.85,373.373 284.724,370.849 284.165,367.199C283.606,363.832 283.606,360.745 284.165,357.942L286.269,351.628C286.549,351.065 288.095,348.96 290.898,345.314C294.548,341.384 299.876,338.018 306.896,335.21C310.259,334.088 317.14,332.123 327.515,329.315L333.829,327.634C338.038,326.791 340.571,325.39 341.409,323.425C342.535,321.74 341.549,318.652 338.466,314.164C336.222,310.513 335.654,308.269 336.781,307.431C337.619,306.304 340.003,307.007 343.933,309.535C344.78,310.657 346.457,312.478 348.989,315.006L350.666,316.688L351.513,319.216ZM376.769,286.384C375.922,289.751 373.538,293.117 369.608,296.484C366.525,299.292 363.154,301.536 359.512,303.221L353.618,304.903C344.92,307.147 334.676,307.147 322.887,304.903C316.713,303.501 311.665,301.536 307.735,299.012C305.211,297.606 303.526,296.344 302.687,295.222L302.26,293.96L309.84,292.698L324.153,293.96C337.06,293.96 345.898,293.397 350.666,292.275C351.233,292.275 352.771,291.995 355.303,291.432C358.386,290.31 361.189,289.048 363.721,287.646C365.399,286.804 367.931,285.258 371.293,283.014C374.105,281.049 375.922,280.35 376.769,280.909C378.174,281.472 378.174,283.297 376.769,286.384ZM279.109,-6.583C278.829,-6.862 272.795,-6.722 261.014,-6.159C249.504,-6.159 237.164,-5.74 223.969,-4.897C209.944,-4.338 198.155,-2.793 188.61,-0.269L181.877,0.993L176.829,2.679C174.025,3.521 172.34,3.661 171.773,3.098C171.773,1.976 172.899,0.714 175.143,-0.688L179.772,-4.055L186.505,-7.002C195.491,-10.932 207.699,-13.879 223.131,-15.844C234.353,-17.246 246.841,-18.228 260.595,-18.787C272.376,-19.63 278.69,-19.913 279.536,-19.63C291.597,-19.913 310.399,-17.385 335.934,-12.054C351.932,-8.124 365.686,-3.915 377.188,0.574C397.116,8.433 411.988,18.114 421.804,29.619C427.978,36.353 431.768,42.247 433.174,47.295L434.432,50.666C433.873,50.666 432.895,49.823 431.489,48.138C423.909,40.562 419.141,35.933 417.176,34.248C405.674,24.144 390.942,16.289 372.979,10.678C363.442,7.307 350.107,3.801 332.991,0.155C326.537,-0.972 320.363,-1.95 314.468,-2.793C310.259,-1.391 305.91,0.294 301.421,2.259C296.094,5.342 292.304,8.853 290.059,12.782C288.374,15.306 287.108,18.393 286.269,22.04C286.269,23.166 286.13,24.987 285.85,27.515C285.85,30.881 285.99,32.846 286.269,33.405L288.374,39.719L292.583,46.876C297.352,56.137 299.876,62.591 300.155,66.237C301.281,69.044 301.561,71.852 301.002,74.655C302.687,75.782 304.652,77.323 306.896,79.288L312.783,84.34L319.944,94.02C320.782,95.422 321.908,97.806 323.306,101.177C325.271,106.225 325.838,109.172 324.991,110.015C324.153,110.015 321.769,108.329 317.839,104.963L305.211,92.335C301.561,89.811 297.911,87.567 294.269,85.602C292.583,87.283 290.618,88.968 288.374,90.654L279.536,97.387L261.852,116.748L254.7,128.537L247.967,143.269C246.561,146.352 245.295,149.3 244.177,152.107C246.142,152.107 249.504,152.387 254.281,152.95C264.664,154.352 275.746,156.876 287.527,160.526C324.293,172.595 353.757,190.833 375.922,215.246C389.396,230.118 399.64,246.257 406.653,263.653C413.386,281.891 417.176,298.449 418.014,313.321C418.861,327.634 418.582,339.839 417.176,349.942L414.652,365.937C409.037,395.122 399.073,421.64 384.768,445.493C371.293,468.505 354.596,487.163 334.676,501.476C317.28,513.544 296.932,521.54 273.642,525.469C255.678,528.836 236.876,529.818 217.236,528.417C203.77,527.011 195.631,526.028 192.819,525.469C184.4,524.068 176.689,521.963 169.668,519.155C156.761,513.544 145.539,506.104 135.994,496.847C118.598,479.727 109.481,461.767 108.634,442.965C108.354,428.373 112.564,416.448 121.262,407.187C125.191,403.541 129.68,400.174 134.736,397.087C139.784,395.685 142.596,394.843 143.155,394.559C148.77,393.157 153.538,394.14 157.468,397.506L160.411,399.611L162.096,402.558C162.655,402.838 163.642,404.523 165.04,407.61C167.563,413.501 168.83,419.675 168.83,426.128C169.389,434.831 169.816,439.599 170.096,440.441C170.655,444.93 171.773,447.314 173.458,447.598C175.143,448.157 177.248,447.878 179.772,446.755L184.828,443.808C187.911,441.564 189.736,440.441 190.295,440.441C190.295,441.001 188.758,442.686 185.667,445.493L181.038,449.279C179.912,450.406 178.654,451.104 177.248,451.384L174.724,451.807L171.773,451.807L169.249,450.122L167.144,447.175C166.026,445.493 165.179,443.389 164.62,440.861C163.782,438.057 163.075,433.285 162.516,426.552C161.398,419.535 159.852,414.203 157.887,410.557L155.782,406.767C155.223,406.208 154.237,405.366 152.831,404.243C150.587,402.838 148.063,402.558 145.259,403.401C137.959,405.925 132.632,411.116 129.261,418.976C127.296,424.024 126.318,428.517 126.318,432.442C125.759,434.687 125.759,437.075 126.318,439.599L126.318,443.808L127.156,447.598C129.121,457.698 135.295,466.819 145.679,474.958C155.503,482.814 167.711,488.289 182.296,491.372C212.887,498.109 246.002,492.354 281.641,474.116C287.527,472.151 297.072,466.256 310.259,456.436C318.677,449.982 326.118,442.546 332.571,434.128C338.466,426.831 344.5,416.168 350.666,402.139C356.002,389.227 359.233,377.722 360.351,367.622C361.477,360.605 361.337,349.942 359.932,335.629C359.085,327.494 357.408,320.338 354.875,314.164C352.072,309.395 350.814,306.867 351.094,306.588C351.373,306.025 352.212,306.304 353.618,307.431C355.303,308.553 356.84,310.234 358.246,312.478C362.176,318.093 364.84,325.39 366.245,334.367C367.651,339.419 368.49,344.751 368.769,350.362C369.328,359.343 369.468,365.378 369.189,368.465C368.35,379.687 365.547,392.315 360.77,406.348C354.596,421.5 348.422,433.145 342.248,441.284C336.082,449.703 327.943,457.981 317.839,466.116C311.106,471.452 304.085,476.22 296.793,480.429C290.898,483.796 287.675,485.621 287.108,485.901C248.945,505.266 213.027,511.156 179.353,503.58C162.795,499.651 148.91,493.057 137.679,483.796C131.785,478.744 127.016,473.413 123.366,467.802C127.863,475.661 134.177,483.237 142.308,490.533C152.132,499.511 162.795,505.964 174.305,509.894C180.758,512.418 187.631,514.103 194.924,514.946C195.491,515.226 203.342,516.068 218.502,517.47C236.737,518.313 254.56,517.051 271.956,513.684C293.003,510.034 311.525,502.458 327.515,490.953C345.479,477.766 360.91,460.226 373.817,438.337C387.292,415.889 396.828,390.913 402.443,363.413L404.548,348.257C406.233,337.594 406.653,326.232 405.814,314.164C405.535,300.414 402.164,285.118 395.71,268.281C388.977,250.885 379.712,235.733 367.931,222.822C348.282,199.811 320.642,181.293 285.003,167.259C275.746,163.613 265.223,160.106 253.434,156.736C248.666,155.334 245.295,154.352 243.33,153.793C241.373,159.683 239.828,165.438 238.702,171.049C238.142,173.856 237.583,177.083 237.016,180.729C236.457,183.257 235.898,184.659 235.339,184.939C234.492,185.222 233.654,183.956 232.807,181.153C231.968,178.066 231.549,174.555 231.549,170.63C231.829,161.927 233.933,151.548 237.863,139.479C240.387,129.659 244.876,119.695 251.329,109.595C256.385,102.299 259.748,98.09 261.433,96.968L271.118,87.283L281.641,80.131C279.676,79.567 277.851,79.148 276.166,78.864L256.805,73.817C244.736,70.446 238.841,67.503 239.121,64.975C239.688,63.294 246.282,62.591 258.909,62.87C265.363,63.433 272.236,64.416 279.536,65.817L288.374,69.607C288.095,69.044 287.955,68.481 287.955,67.922C287.675,65.398 285.85,60.206 282.48,52.347L278.27,44.352L276.585,40.143L275.746,35.51C275.187,33.545 275.187,30.598 275.746,26.672L277.004,19.096C278.131,15.446 280.095,11.516 282.899,7.307C287.108,1.696 292.444,-1.95 298.897,-3.635C300.303,-3.915 301.701,-4.194 303.107,-4.478C293.282,-5.88 285.283,-6.583 279.109,-6.583L279.109,-6.583ZM47.18,115.486C51.11,106.225 53.774,101.876 55.18,102.439C56.018,102.718 55.459,107.77 53.494,117.591C50.97,130.502 49.992,141.165 50.551,149.583C50.83,164.735 56.306,179.048 66.969,192.514C67.807,193.641 69.073,195.322 70.75,197.566L74.96,202.199C76.925,204.164 79.736,207.107 83.378,211.037C93.203,218.896 99.377,223.665 101.901,225.35C103.866,226.752 109.481,230.538 118.738,236.712C125.191,240.641 130.108,244.152 133.47,247.235C151.992,263.792 163.921,273.756 169.249,277.123L178.933,283.437L183.143,285.118C186.226,281.193 190.016,277.263 194.504,273.333C193.386,273.054 192.26,272.774 191.142,272.49C181.877,270.246 174.584,264.072 169.249,253.972C166.725,248.641 165.747,243.449 166.306,238.397C166.585,234.467 167.563,231.101 169.249,228.293C170.934,225.49 172.48,224.368 173.877,224.927C175.004,225.49 175.702,227.171 175.982,229.979C176.27,231.664 176.689,234.328 177.248,237.978C177.807,241.344 179.073,244.711 181.038,248.078C184.121,254.531 188.758,259.164 194.924,261.967C197.735,263.373 200.678,264.495 203.77,265.338C208.817,261.688 211.909,260.705 213.027,262.391C213.586,263.233 213.027,264.775 211.341,267.019L210.503,268.281C210.223,268.565 209.944,268.984 209.656,269.547C206.573,273.193 204.049,276.28 202.084,278.804C193.945,288.629 189.177,296.624 187.771,302.798L187.771,303.641C187.492,304.763 187.352,306.588 187.352,309.112C187.352,310.957 188.47,313.901 190.714,317.954C191.561,313.181 192.26,310.374 192.819,309.535L195.77,303.641C196.609,302.239 198.155,300.274 200.399,297.746C204.329,294.1 209.656,290.31 216.397,286.384C227.619,279.931 234.353,275.721 236.597,273.756C239.688,270.949 242.072,267.582 243.758,263.653L245.015,258.601L242.492,251.444C242.771,251.165 241.513,248.217 238.702,242.606C235.06,236.432 231.13,230.398 226.921,224.507C226.074,223.385 222.004,217.351 214.712,206.408C211.062,200.793 209.516,197.706 210.084,197.147C211.202,196.304 214.433,197.85 219.76,201.776C225.095,205.985 230.423,211.316 235.758,217.77C240.247,223.385 244.736,229.699 249.225,236.712C252.875,242.327 254.7,245.554 254.7,246.396L258.063,256.919L257.643,263.653L255.958,268.705C253.434,274.316 249.504,279.228 244.177,283.437C242.212,284.559 240.247,285.961 238.282,287.646L239.968,287.646C241.373,287.926 247.967,288.629 259.748,289.751L258.909,285.542L259.329,280.909C260.167,275.018 262.699,268.705 266.909,261.967C267.747,260.566 270.271,257.618 274.48,253.129C279.816,246.676 285.423,241.764 291.317,238.397C299.177,233.345 306.05,229.839 311.944,227.874C318.957,225.909 322.467,225.909 322.467,227.874C322.747,228.717 320.083,230.821 314.468,234.188L298.05,246.396C293.003,250.606 288.095,255.514 283.318,261.129C279.676,265.897 277.851,268.565 277.851,269.124C271.397,279.228 270.131,287.223 274.061,293.117C276.864,298.169 281.92,302.798 289.213,307.007C294.269,309.252 299.596,311.077 305.211,312.478C308.574,313.041 312.643,313.744 317.42,314.583C325.838,315.989 330.327,317.111 330.886,317.954C330.327,319.076 325.698,320.058 316.992,320.897C304.652,321.74 293.989,320.478 285.003,317.111C275.746,314.024 268.446,308.129 263.119,299.431C262.839,299.152 262.699,298.728 262.699,298.169C257.084,301.536 248.945,302.239 238.282,300.274C230.99,298.872 226.074,297.187 223.55,295.222C222.711,295.502 222.004,295.781 221.445,296.065C209.377,301.955 201.665,307.431 198.294,312.478C196.889,315.565 195.77,317.67 194.924,318.792L193.666,322.582L193.247,323.425L198.294,333.948C198.294,334.507 198.434,334.93 198.714,335.21C198.714,334.93 198.853,334.507 199.133,333.948L201.238,329.739C205.447,323.565 208.398,319.775 210.084,318.373C211.761,317.251 213.166,316.827 214.293,317.111L216.397,320.478C217.795,325.246 216.397,330.581 212.188,336.472L207.132,341.105C206.294,341.664 205.595,342.083 205.027,342.367C206.713,343.489 208.538,343.908 210.503,343.629C214.433,343.629 218.223,341.803 221.865,338.157C224.388,335.629 226.353,332.966 227.759,330.158C229.165,327.634 229.444,324.827 228.598,321.74L227.759,320.058L229.864,320.478C230.99,320.757 232.108,321.879 233.234,323.844C234.353,326.372 234.632,329.036 234.073,331.843C233.514,336.053 231.689,340.122 228.598,344.048C224.109,350.501 218.362,354.152 211.341,354.994C206.294,355.553 201.805,354.291 197.875,351.204C194.225,348.96 190.862,345.314 187.771,340.262C186.365,338.577 185.107,336.332 183.981,333.525L180.619,327.634C176.689,319.495 174.584,313.605 174.305,309.954C174.025,306.867 174.445,303.501 175.563,299.851L175.563,300.274C176.689,296.065 178.654,291.855 181.457,287.646L177.248,286.803C172.2,285.402 168.41,283.996 165.886,282.594C164.48,282.035 162.655,281.193 160.411,280.07C160.411,280.909 159.145,282.315 156.621,284.28C153.259,286.244 150.587,287.926 148.622,289.327C147.504,290.17 146.377,291.292 145.259,292.698C146.098,293.257 146.945,293.96 147.783,294.803L151.573,299.012C156.062,305.466 158.586,309.675 159.145,311.64C159.712,313.605 159.852,315.006 159.572,315.849C158.726,316.971 157.468,317.391 155.782,317.111C151.014,316.268 146.517,313.321 142.308,308.269C142.308,309.112 142.456,310.094 142.735,311.216C143.015,315.426 143.853,318.652 145.259,320.897C146.377,323.704 149.189,325.39 153.678,325.949C157.608,326.791 159.852,327.634 160.411,328.477L159.572,329.739C158.167,330.861 156.341,331.704 154.097,332.263C150.726,332.826 148.342,332.966 146.945,332.686C143.015,333.245 139.365,331.42 135.994,327.211C133.47,324.128 131.505,319.635 130.108,313.744L128.842,305.326C128.562,302.518 128.842,299.012 129.68,294.803L132.632,288.065C135.435,284.419 139.085,281.752 143.574,280.07C147.504,278.385 151.433,277.542 155.363,277.542L156.621,277.542C149.329,273.053 139.225,265.757 126.318,255.653C123.794,253.688 119.157,250.605 112.424,246.396C104.852,242.187 98.957,238.537 94.748,235.45C91.098,233.485 84.505,228.577 74.96,220.717L56.018,199.671C52.935,196.025 49.992,191.113 47.18,184.939C41.853,173.996 39.329,162.211 39.609,149.583C39.888,138.078 42.412,126.712 47.18,115.486L47.18,115.486ZM275.746,-203.156C284.165,-205.68 295.946,-208.487 311.106,-211.574L341.409,-218.308C379.572,-226.447 409.456,-229.953 431.07,-228.831C439.488,-228.831 448.326,-227.429 457.583,-224.621C459.827,-223.499 462.779,-222.097 466.421,-220.412L472.735,-216.203C474.42,-214.801 476.385,-212.133 478.629,-208.204L482,-201.47L480.315,-203.575C478.07,-207.505 474.987,-211.011 471.058,-214.098L464.744,-217.465C461.093,-218.867 458.29,-219.993 456.325,-220.831C447.339,-222.517 438.921,-223.22 431.07,-222.936C424.616,-222.936 417.176,-222.377 408.757,-221.255C406.513,-220.412 404.408,-219.29 402.443,-217.888C389.536,-209.47 378.873,-196.842 370.455,-180.005L366.245,-171.586L359.931,-153.483L360.77,-149.697L365.399,-136.646C372.979,-137.489 380.559,-137.773 388.13,-137.489C395.71,-136.93 402.723,-136.087 409.177,-134.965L426.86,-130.756C435.558,-127.948 443.418,-123.459 450.431,-117.285C454.919,-113.635 458.709,-109.709 461.792,-105.5C463.478,-103.535 465.303,-101.291 467.268,-98.763L469.792,-94.977C469.232,-94.977 467.966,-95.68 466.002,-97.082C460.107,-102.134 453.653,-107.321 446.641,-112.657C438.502,-117.425 430.93,-120.652 423.909,-122.337C416.896,-123.459 411.561,-124.442 407.919,-125.285L387.711,-126.123C380.978,-126.123 373.817,-125.704 366.245,-124.861L366.245,-124.442C365.399,-122.757 364.001,-121.215 362.036,-119.809C360.91,-118.971 358.386,-117.705 354.456,-116.023L340.143,-110.971C333.41,-108.448 329.201,-106.622 327.515,-105.5L324.153,-102.553C323.306,-101.431 320.922,-98.483 316.992,-93.715C308.294,-80.245 303.526,-69.722 302.687,-62.146C301.281,-52.601 304.512,-42.078 312.364,-30.576L319.524,-20.892C321.201,-18.647 321.908,-17.106 321.629,-16.263C321.349,-15.984 319.804,-16.682 316.992,-18.368L312.364,-21.315L306.896,-26.367C302.12,-31.415 298.618,-36.327 296.373,-41.099C296.094,-41.658 294.828,-45.169 292.583,-51.623L291.737,-62.984C292.304,-68.32 293.003,-71.966 293.841,-73.931L297.212,-84.031C298.618,-87.118 301.701,-92.733 306.469,-100.868C310.399,-106.483 314.608,-111.111 319.097,-114.761C306.757,-110.832 291.737,-105.077 274.061,-97.501C251.897,-88.803 231.689,-78.843 213.446,-67.617C198.574,-58.635 187.352,-49.378 179.772,-39.833C176.969,-36.75 174.025,-32.96 170.934,-28.472C168.969,-25.385 167.711,-23.979 167.144,-24.262C166.306,-24.262 166.445,-26.083 167.563,-29.734C168.969,-34.222 171.214,-38.995 174.305,-44.043C181.317,-55.548 192.4,-66.355 207.551,-76.455C226.353,-89.366 246.841,-100.309 269.013,-109.286C296.793,-121.355 318.677,-129.07 334.676,-132.437C340.571,-133.843 346.457,-134.825 352.351,-135.384L348.562,-147.169C347.723,-150.82 347.443,-153.483 347.723,-155.169C349.408,-161.343 350.666,-165.273 351.513,-166.954C352.919,-170.604 356.141,-176.774 361.189,-185.476C369.608,-200.348 379.572,-211.435 391.082,-218.727C377.048,-216.482 361.189,-213.256 343.514,-209.046L312.783,-202.313C294.548,-197.541 283.466,-194.314 279.536,-192.633C265.503,-187.018 254.001,-180.983 245.015,-174.53C234.632,-167.517 223.55,-158.116 211.761,-146.331C189.596,-123.599 171.633,-94.977 157.887,-60.46L149.888,-33.1C147.364,-21.031 146.665,-11.774 147.783,-5.321C149.189,3.661 154.237,10.538 162.935,15.306C166.306,17.271 171.074,19.376 177.248,21.62L193.666,27.515C194.225,27.794 199.421,30.458 209.237,35.51C215.69,39.719 220.607,44.068 223.969,48.561C229.305,55.853 231.549,63.992 230.702,72.974C230.423,82.235 228.178,91.353 223.969,100.334C220.327,108.753 213.586,116.468 203.77,123.485L181.038,141.165C173.179,151.548 166.725,159.404 161.677,164.735C157.188,170.066 152.831,173.713 148.622,175.677C142.735,178.485 136.841,179.607 130.946,179.048C123.654,178.485 118.318,177.503 114.948,176.101C108.782,174.136 104.145,170.769 101.062,165.997C97.691,161.229 96.294,155.897 96.853,150.003C97.412,144.951 98.538,140.182 100.215,135.689C103.306,128.677 107.935,121.241 114.109,113.381C123.654,102.439 133.75,95.003 144.413,91.073C148.063,89.951 151.433,89.388 154.516,89.388C153.957,88.829 153.538,88.265 153.259,87.706C150.447,83.214 144.561,80.27 135.575,78.864C134.736,78.585 133.75,78.445 132.632,78.445C132.072,80.69 129.68,83.637 125.471,87.283C119.584,91.492 114.109,93.597 109.061,93.597L105.271,91.916L105.271,90.654C105.271,89.811 105.551,88.829 106.11,87.706C107.236,85.178 110.599,81.952 116.214,78.026L113.271,78.026C106.25,78.585 102.608,79.004 102.32,79.288L92.644,81.392C87.875,82.515 84.924,83.497 83.806,84.34C80.994,85.462 76.226,88.265 69.493,92.758C61.354,98.09 56.865,100.893 56.018,101.177C50.97,103.98 46.342,105.805 42.132,106.648C38.762,106.928 36.098,106.928 34.133,106.648C33.295,106.648 32.029,106.225 30.343,105.386L27.819,103.281C25.016,101.037 22.911,98.09 21.505,94.44C20.1,91.352 19.68,88.265 20.239,85.178C20.527,82.095 21.645,79.847 23.61,78.445L25.715,76.76L26.981,77.603C30.343,80.41 32.448,83.916 33.295,88.126L33.295,90.23L31.609,88.549C30.763,86.864 29.365,85.462 27.4,84.34C27.121,86.305 27.68,88.409 29.085,90.654C30.763,93.457 32.168,95.142 33.295,95.701C34.692,96.544 35.539,96.828 35.819,96.544C36.378,96.828 37.644,96.684 39.609,96.125C43.818,95.003 51.39,90.514 62.332,82.654C70.471,77.044 75.807,73.677 78.33,72.551C80.854,71.149 84.365,69.887 88.854,68.765L100.215,66.237C100.783,66.237 104.992,65.957 112.843,65.398C122.108,65.115 130.527,66.097 138.099,68.341C142.596,69.184 147.084,71.149 151.573,74.236C155.223,77.323 157.747,80.829 159.145,84.759C160.551,88.689 160.691,91.632 159.572,93.597C158.726,95.841 158.027,96.968 157.468,96.968C156.901,96.968 156.481,95.841 156.202,93.597C155.922,92.475 155.643,91.492 155.363,90.654C152.552,91.492 149.469,92.898 146.098,94.863C136.841,99.631 127.863,107.351 119.157,118.014C114.109,124.747 110.319,131.62 107.795,138.637C104.425,148.457 104.712,155.897 108.634,160.945C112.284,166.281 119.864,168.944 131.365,168.944C139.784,169.224 147.364,165.438 154.097,157.578C155.503,155.614 158.446,151.828 162.935,146.213C166.865,140.602 170.235,136.253 173.039,133.166L197.028,113.805C204.329,108.753 209.516,102.579 212.607,95.282C215.69,88.265 217.516,80.69 218.075,72.551C218.642,61.608 213.446,52.91 202.504,46.456C193.806,42.247 189.177,40.003 188.61,39.719C174.025,34.951 163.214,30.458 156.202,26.249C150.028,22.323 145.399,18.393 142.308,14.464C138.099,9.412 135.575,3.661 134.736,-2.793C133.051,-12.054 133.889,-23.136 137.26,-36.047L146.517,-65.089C160.271,-100.169 179.213,-130.053 203.342,-154.749C215.411,-166.814 227.34,-176.634 239.121,-184.214C248.945,-190.668 261.154,-196.982 275.746,-203.156Z" />
    </g>
</svg>
